<svg width="759" height="458" viewBox="0 0 759 458" fill="none" xmlns="http://www.w3.org/2000/svg">
<rect width="759" height="458" fill="white"/>
<rect x="50" y="86" width="147" height="149" fill="#E9B466"/>
<rect x="587" y="116" width="135" height="107" fill="#D7CF8A"/>
<rect x="313" y="125" width="147" height="46" fill="#FA7E7E"/>
<rect x="581" y="275" width="147" height="149" rx="29" fill="#67A45D"/>
<path d="M606.816 38.0273H600.207L598.824 42H595.742L602.188 24.9375H604.848L611.305 42H608.211L606.816 38.0273ZM601.039 35.6367H605.984L603.512 28.5586L601.039 35.6367ZM616.215 35.6602V42H613.25V24.9375H619.777C621.684 24.9375 623.195 25.4336 624.312 26.4258C625.438 27.418 626 28.7305 626 30.3633C626 32.0352 625.449 33.3359 624.348 34.2656C623.254 35.1953 621.719 35.6602 619.742 35.6602H616.215ZM616.215 33.2812H619.777C620.832 33.2812 621.637 33.0352 622.191 32.543C622.746 32.043 623.023 31.3242 623.023 30.3867C623.023 29.4648 622.742 28.7305 622.18 28.1836C621.617 27.6289 620.844 27.3438 619.859 27.3281H616.215V33.2812ZM631.73 42H628.777V24.9375H631.73V42ZM647.621 35.4258H644.316V42H641.352V24.9375H647.352C649.32 24.9375 650.84 25.3789 651.91 26.2617C652.98 27.1445 653.516 28.4219 653.516 30.0938C653.516 31.2344 653.238 32.1914 652.684 32.9648C652.137 33.7305 651.371 34.3203 650.387 34.7344L654.219 41.8477V42H651.043L647.621 35.4258ZM644.316 33.0469H647.363C648.363 33.0469 649.145 32.7969 649.707 32.2969C650.27 31.7891 650.551 31.0977 650.551 30.2227C650.551 29.3086 650.289 28.6016 649.766 28.1016C649.25 27.6016 648.477 27.3438 647.445 27.3281H644.316V33.0469ZM661.637 42.2344C659.832 42.2344 658.367 41.668 657.242 40.5352C656.125 39.3945 655.566 37.8789 655.566 35.9883V35.6367C655.566 34.3711 655.809 33.2422 656.293 32.25C656.785 31.25 657.473 30.4727 658.355 29.918C659.238 29.3633 660.223 29.0859 661.309 29.0859C663.035 29.0859 664.367 29.6367 665.305 30.7383C666.25 31.8398 666.723 33.3984 666.723 35.4141V36.5625H658.438C658.523 37.6094 658.871 38.4375 659.48 39.0469C660.098 39.6562 660.871 39.9609 661.801 39.9609C663.105 39.9609 664.168 39.4336 664.988 38.3789L666.523 39.8438C666.016 40.6016 665.336 41.1914 664.484 41.6133C663.641 42.0273 662.691 42.2344 661.637 42.2344ZM661.297 31.3711C660.516 31.3711 659.883 31.6445 659.398 32.1914C658.922 32.7383 658.617 33.5 658.484 34.4766H663.91V34.2656C663.848 33.3125 663.594 32.5938 663.148 32.1094C662.703 31.6172 662.086 31.3711 661.297 31.3711ZM676.051 38.5547C676.051 38.0469 675.84 37.6602 675.418 37.3945C675.004 37.1289 674.312 36.8945 673.344 36.6914C672.375 36.4883 671.566 36.2305 670.918 35.918C669.496 35.2305 668.785 34.2344 668.785 32.9297C668.785 31.8359 669.246 30.9219 670.168 30.1875C671.09 29.4531 672.262 29.0859 673.684 29.0859C675.199 29.0859 676.422 29.4609 677.352 30.2109C678.289 30.9609 678.758 31.9336 678.758 33.1289H675.91C675.91 32.582 675.707 32.1289 675.301 31.7695C674.895 31.4023 674.355 31.2188 673.684 31.2188C673.059 31.2188 672.547 31.3633 672.148 31.6523C671.758 31.9414 671.562 32.3281 671.562 32.8125C671.562 33.25 671.746 33.5898 672.113 33.832C672.48 34.0742 673.223 34.3203 674.34 34.5703C675.457 34.8125 676.332 35.1055 676.965 35.4492C677.605 35.7852 678.078 36.1914 678.383 36.668C678.695 37.1445 678.852 37.7227 678.852 38.4023C678.852 39.543 678.379 40.4688 677.434 41.1797C676.488 41.8828 675.25 42.2344 673.719 42.2344C672.68 42.2344 671.754 42.0469 670.941 41.6719C670.129 41.2969 669.496 40.7812 669.043 40.125C668.59 39.4688 668.363 38.7617 668.363 38.0039H671.129C671.168 38.6758 671.422 39.1953 671.891 39.5625C672.359 39.9219 672.98 40.1016 673.754 40.1016C674.504 40.1016 675.074 39.9609 675.465 39.6797C675.855 39.3906 676.051 39.0156 676.051 38.5547ZM684.91 26.2383V29.3203H687.148V31.4297H684.91V38.5078C684.91 38.9922 685.004 39.3438 685.191 39.5625C685.387 39.7734 685.73 39.8789 686.223 39.8789C686.551 39.8789 686.883 39.8398 687.219 39.7617V41.9648C686.57 42.1445 685.945 42.2344 685.344 42.2344C683.156 42.2344 682.062 41.0273 682.062 38.6133V31.4297H679.977V29.3203H682.062V26.2383H684.91ZM690.336 42V31.4297H688.402V29.3203H690.336V28.1602C690.336 26.7539 690.727 25.668 691.508 24.9023C692.289 24.1367 693.383 23.7539 694.789 23.7539C695.289 23.7539 695.82 23.8242 696.383 23.9648L696.312 26.1914C696 26.1289 695.637 26.0977 695.223 26.0977C693.863 26.0977 693.184 26.7969 693.184 28.1953V29.3203H695.762V31.4297H693.184V42H690.336ZM705.523 40.7578C704.688 41.7422 703.5 42.2344 701.961 42.2344C700.586 42.2344 699.543 41.832 698.832 41.0273C698.129 40.2227 697.777 39.0586 697.777 37.5352V29.3203H700.625V37.5C700.625 39.1094 701.293 39.9141 702.629 39.9141C704.012 39.9141 704.945 39.418 705.43 38.4258V29.3203H708.277V42H705.594L705.523 40.7578ZM714.207 42H711.359V24H714.207V42ZM720.348 42H717.5V24H720.348V42Z" fill="black"/>
<path d="M607.865 63.9395C607.707 65.293 607.206 66.3389 606.362 67.0771C605.524 67.8096 604.408 68.1758 603.014 68.1758C601.502 68.1758 600.289 67.6338 599.375 66.5498C598.467 65.4658 598.013 64.0156 598.013 62.1992V60.9688C598.013 59.7793 598.224 58.7334 598.646 57.8311C599.073 56.9287 599.677 56.2373 600.456 55.7568C601.235 55.2705 602.138 55.0273 603.163 55.0273C604.522 55.0273 605.612 55.4082 606.433 56.1699C607.253 56.9258 607.73 57.9746 607.865 59.3164H606.169C606.022 58.2969 605.703 57.5586 605.211 57.1016C604.725 56.6445 604.042 56.416 603.163 56.416C602.085 56.416 601.238 56.8145 600.623 57.6113C600.014 58.4082 599.709 59.542 599.709 61.0127V62.252C599.709 63.6406 599.999 64.7451 600.579 65.5654C601.159 66.3857 601.971 66.7959 603.014 66.7959C603.951 66.7959 604.669 66.585 605.167 66.1631C605.671 65.7354 606.005 64.9941 606.169 63.9395H607.865ZM611.688 68H610.062V54.5H611.688V68ZM618.245 68.1758C616.956 68.1758 615.907 67.7539 615.099 66.9102C614.29 66.0605 613.886 64.9268 613.886 63.5088V63.21C613.886 62.2666 614.064 61.4258 614.422 60.6875C614.785 59.9434 615.289 59.3633 615.934 58.9473C616.584 58.5254 617.287 58.3145 618.043 58.3145C619.279 58.3145 620.24 58.7217 620.926 59.5361C621.611 60.3506 621.954 61.5166 621.954 63.0342V63.7109H615.512C615.535 64.6484 615.808 65.4072 616.329 65.9873C616.856 66.5615 617.524 66.8486 618.333 66.8486C618.907 66.8486 619.394 66.7314 619.792 66.4971C620.19 66.2627 620.539 65.9521 620.838 65.5654L621.831 66.3389C621.034 67.5635 619.839 68.1758 618.245 68.1758ZM618.043 59.6504C617.387 59.6504 616.836 59.8906 616.391 60.3711C615.945 60.8457 615.67 61.5137 615.564 62.375H620.328V62.252C620.281 61.4258 620.059 60.7871 619.66 60.3359C619.262 59.8789 618.723 59.6504 618.043 59.6504ZM626.832 65.6182L629.047 58.4902H630.787L626.964 69.4678C626.372 71.0498 625.432 71.8408 624.143 71.8408L623.835 71.8145L623.229 71.7002V70.3818L623.668 70.417C624.219 70.417 624.646 70.3057 624.951 70.083C625.262 69.8604 625.517 69.4531 625.716 68.8613L626.076 67.8945L622.684 58.4902H624.459L626.832 65.6182ZM634.452 56.1875V58.4902H636.228V59.7471H634.452V65.6445C634.452 66.0254 634.531 66.3125 634.689 66.5059C634.848 66.6934 635.117 66.7871 635.498 66.7871C635.686 66.7871 635.943 66.752 636.271 66.6816V68C635.844 68.1172 635.428 68.1758 635.023 68.1758C634.297 68.1758 633.749 67.9561 633.38 67.5166C633.011 67.0771 632.826 66.4531 632.826 65.6445V59.7471H631.095V58.4902H632.826V56.1875H634.452ZM637.528 63.1572C637.528 62.2256 637.71 61.3877 638.073 60.6436C638.442 59.8994 638.952 59.3252 639.603 58.9209C640.259 58.5166 641.006 58.3145 641.844 58.3145C643.139 58.3145 644.185 58.7627 644.981 59.6592C645.784 60.5557 646.186 61.748 646.186 63.2363V63.3506C646.186 64.2764 646.007 65.1084 645.649 65.8467C645.298 66.5791 644.791 67.1504 644.129 67.5605C643.473 67.9707 642.717 68.1758 641.861 68.1758C640.572 68.1758 639.526 67.7275 638.724 66.8311C637.927 65.9346 637.528 64.748 637.528 63.2715V63.1572ZM639.163 63.3506C639.163 64.4053 639.406 65.252 639.893 65.8906C640.385 66.5293 641.041 66.8486 641.861 66.8486C642.688 66.8486 643.344 66.5264 643.83 65.8818C644.316 65.2314 644.56 64.3232 644.56 63.1572C644.56 62.1143 644.311 61.2705 643.812 60.626C643.32 59.9756 642.664 59.6504 641.844 59.6504C641.041 59.6504 640.394 59.9697 639.901 60.6084C639.409 61.2471 639.163 62.1611 639.163 63.3506ZM649.763 58.4902L649.815 59.6855C650.542 58.7715 651.491 58.3145 652.663 58.3145C654.673 58.3145 655.687 59.4482 655.704 61.7158V68H654.078V61.707C654.072 61.0215 653.914 60.5146 653.604 60.1865C653.299 59.8584 652.821 59.6943 652.171 59.6943C651.644 59.6943 651.181 59.835 650.782 60.1162C650.384 60.3975 650.073 60.7666 649.851 61.2236V68H648.225V58.4902H649.763ZM672.289 63.9395C672.131 65.293 671.63 66.3389 670.786 67.0771C669.948 67.8096 668.832 68.1758 667.438 68.1758C665.926 68.1758 664.713 67.6338 663.799 66.5498C662.891 65.4658 662.437 64.0156 662.437 62.1992V60.9688C662.437 59.7793 662.647 58.7334 663.069 57.8311C663.497 56.9287 664.101 56.2373 664.88 55.7568C665.659 55.2705 666.562 55.0273 667.587 55.0273C668.946 55.0273 670.036 55.4082 670.856 56.1699C671.677 56.9258 672.154 57.9746 672.289 59.3164H670.593C670.446 58.2969 670.127 57.5586 669.635 57.1016C669.148 56.6445 668.466 56.416 667.587 56.416C666.509 56.416 665.662 56.8145 665.047 57.6113C664.438 58.4082 664.133 59.542 664.133 61.0127V62.252C664.133 63.6406 664.423 64.7451 665.003 65.5654C665.583 66.3857 666.395 66.7959 667.438 66.7959C668.375 66.7959 669.093 66.585 669.591 66.1631C670.095 65.7354 670.429 64.9941 670.593 63.9395H672.289ZM675.972 59.6416C676.692 58.7568 677.63 58.3145 678.784 58.3145C680.794 58.3145 681.808 59.4482 681.825 61.7158V68H680.199V61.707C680.193 61.0215 680.035 60.5146 679.725 60.1865C679.42 59.8584 678.942 59.6943 678.292 59.6943C677.765 59.6943 677.302 59.835 676.903 60.1162C676.505 60.3975 676.194 60.7666 675.972 61.2236V68H674.346V54.5H675.972V59.6416ZM690.131 68C690.037 67.8125 689.961 67.4785 689.902 66.998C689.146 67.7832 688.244 68.1758 687.195 68.1758C686.258 68.1758 685.487 67.9121 684.884 67.3848C684.286 66.8516 683.987 66.1777 683.987 65.3633C683.987 64.373 684.362 63.6055 685.112 63.0605C685.868 62.5098 686.929 62.2344 688.294 62.2344H689.876V61.4873C689.876 60.9189 689.706 60.4678 689.366 60.1338C689.026 59.7939 688.525 59.624 687.863 59.624C687.283 59.624 686.797 59.7705 686.404 60.0635C686.012 60.3564 685.815 60.7109 685.815 61.127H684.181C684.181 60.6523 684.348 60.1953 684.682 59.7559C685.021 59.3105 685.479 58.959 686.053 58.7012C686.633 58.4434 687.269 58.3145 687.96 58.3145C689.056 58.3145 689.914 58.5898 690.535 59.1406C691.156 59.6855 691.479 60.4385 691.502 61.3994V65.7764C691.502 66.6494 691.613 67.3438 691.836 67.8594V68H690.131ZM687.433 66.7607C687.942 66.7607 688.426 66.6289 688.883 66.3652C689.34 66.1016 689.671 65.7588 689.876 65.3369V63.3857H688.602C686.609 63.3857 685.613 63.9688 685.613 65.1348C685.613 65.6445 685.783 66.043 686.123 66.3301C686.463 66.6172 686.899 66.7607 687.433 66.7607ZM693.664 63.166C693.664 61.6836 694.007 60.5059 694.692 59.6328C695.378 58.7539 696.286 58.3145 697.417 58.3145C698.577 58.3145 699.482 58.7246 700.133 59.5449L700.212 58.4902H701.697V67.7715C701.697 69.002 701.331 69.9717 700.599 70.6807C699.872 71.3896 698.894 71.7441 697.663 71.7441C696.978 71.7441 696.307 71.5977 695.65 71.3047C694.994 71.0117 694.493 70.6104 694.147 70.1006L694.991 69.125C695.688 69.9863 696.541 70.417 697.549 70.417C698.34 70.417 698.955 70.1943 699.395 69.749C699.84 69.3037 700.062 68.6768 700.062 67.8682V67.0508C699.412 67.8008 698.524 68.1758 697.399 68.1758C696.286 68.1758 695.384 67.7275 694.692 66.8311C694.007 65.9346 693.664 64.7129 693.664 63.166ZM695.299 63.3506C695.299 64.4229 695.519 65.2666 695.958 65.8818C696.397 66.4912 697.013 66.7959 697.804 66.7959C698.829 66.7959 699.582 66.3301 700.062 65.3984V61.0566C699.564 60.1484 698.817 59.6943 697.821 59.6943C697.03 59.6943 696.412 60.002 695.967 60.6172C695.521 61.2324 695.299 62.1436 695.299 63.3506ZM710.029 68C709.936 67.8125 709.859 67.4785 709.801 66.998C709.045 67.7832 708.143 68.1758 707.094 68.1758C706.156 68.1758 705.386 67.9121 704.782 67.3848C704.185 66.8516 703.886 66.1777 703.886 65.3633C703.886 64.373 704.261 63.6055 705.011 63.0605C705.767 62.5098 706.827 62.2344 708.192 62.2344H709.774V61.4873C709.774 60.9189 709.604 60.4678 709.265 60.1338C708.925 59.7939 708.424 59.624 707.762 59.624C707.182 59.624 706.695 59.7705 706.303 60.0635C705.91 60.3564 705.714 60.7109 705.714 61.127H704.079C704.079 60.6523 704.246 60.1953 704.58 59.7559C704.92 59.3105 705.377 58.959 705.951 58.7012C706.531 58.4434 707.167 58.3145 707.858 58.3145C708.954 58.3145 709.812 58.5898 710.434 59.1406C711.055 59.6855 711.377 60.4385 711.4 61.3994V65.7764C711.4 66.6494 711.512 67.3438 711.734 67.8594V68H710.029ZM707.331 66.7607C707.841 66.7607 708.324 66.6289 708.781 66.3652C709.238 66.1016 709.569 65.7588 709.774 65.3369V63.3857H708.5C706.508 63.3857 705.512 63.9688 705.512 65.1348C705.512 65.6445 705.682 66.043 706.021 66.3301C706.361 66.6172 706.798 66.7607 707.331 66.7607ZM719.486 65.4775C719.486 65.0381 719.319 64.6982 718.985 64.458C718.657 64.2119 718.08 64.001 717.254 63.8252C716.434 63.6494 715.78 63.4385 715.294 63.1924C714.813 62.9463 714.456 62.6533 714.222 62.3135C713.993 61.9736 713.879 61.5693 713.879 61.1006C713.879 60.3213 714.207 59.6621 714.863 59.123C715.525 58.584 716.369 58.3145 717.395 58.3145C718.473 58.3145 719.346 58.5928 720.014 59.1494C720.688 59.7061 721.024 60.418 721.024 61.2852H719.39C719.39 60.8398 719.199 60.4561 718.818 60.1338C718.443 59.8115 717.969 59.6504 717.395 59.6504C716.803 59.6504 716.34 59.7793 716.006 60.0371C715.672 60.2949 715.505 60.6318 715.505 61.0479C715.505 61.4404 715.66 61.7363 715.971 61.9355C716.281 62.1348 716.841 62.3252 717.649 62.5068C718.464 62.6885 719.123 62.9053 719.627 63.1572C720.131 63.4092 720.503 63.7139 720.743 64.0713C720.989 64.4229 721.112 64.8535 721.112 65.3633C721.112 66.2129 720.772 66.8955 720.093 67.4111C719.413 67.9209 718.531 68.1758 717.447 68.1758C716.686 68.1758 716.012 68.041 715.426 67.7715C714.84 67.502 714.38 67.127 714.046 66.6465C713.718 66.1602 713.554 65.6357 713.554 65.0732H715.18C715.209 65.6182 715.426 66.0518 715.83 66.374C716.24 66.6904 716.779 66.8486 717.447 66.8486C718.062 66.8486 718.555 66.7256 718.924 66.4795C719.299 66.2275 719.486 65.8936 719.486 65.4775Z" fill="black"/>
<path d="M95.335 158.66H89.9736L88.7695 162H87.0293L91.916 149.203H93.3926L98.2881 162H96.5566L95.335 158.66ZM90.4834 157.271H94.834L92.6543 151.286L90.4834 157.271ZM101.698 156.99V162H100.011V149.203H104.73C106.131 149.203 107.227 149.561 108.018 150.275C108.814 150.99 109.213 151.937 109.213 153.114C109.213 154.356 108.823 155.314 108.044 155.988C107.271 156.656 106.16 156.99 104.713 156.99H101.698ZM101.698 155.61H104.73C105.633 155.61 106.324 155.399 106.805 154.978C107.285 154.55 107.525 153.935 107.525 153.132C107.525 152.37 107.285 151.761 106.805 151.304C106.324 150.847 105.665 150.609 104.827 150.592H101.698V155.61ZM113.177 162H111.489V149.203H113.177V162ZM125.429 156.823H122.423V162H120.727V149.203H124.963C126.404 149.203 127.512 149.531 128.285 150.188C129.064 150.844 129.454 151.799 129.454 153.053C129.454 153.85 129.237 154.544 128.804 155.136C128.376 155.728 127.778 156.17 127.011 156.463L130.017 161.895V162H128.206L125.429 156.823ZM122.423 155.443H125.016C125.854 155.443 126.519 155.227 127.011 154.793C127.509 154.359 127.758 153.779 127.758 153.053C127.758 152.262 127.521 151.655 127.046 151.233C126.577 150.812 125.897 150.598 125.007 150.592H122.423V155.443ZM139.061 156.085H133.515V160.62H139.957V162H131.827V149.203H139.869V150.592H133.515V154.705H139.061V156.085ZM145.828 156.296C144.381 155.88 143.326 155.37 142.664 154.767C142.008 154.157 141.68 153.407 141.68 152.517C141.68 151.509 142.081 150.677 142.884 150.021C143.692 149.358 144.741 149.027 146.03 149.027C146.909 149.027 147.691 149.197 148.377 149.537C149.068 149.877 149.602 150.346 149.977 150.943C150.357 151.541 150.548 152.194 150.548 152.903H148.852C148.852 152.13 148.605 151.523 148.113 151.084C147.621 150.639 146.927 150.416 146.03 150.416C145.198 150.416 144.548 150.601 144.079 150.97C143.616 151.333 143.385 151.84 143.385 152.49C143.385 153.012 143.604 153.454 144.044 153.817C144.489 154.175 145.242 154.503 146.303 154.802C147.369 155.101 148.201 155.432 148.799 155.795C149.402 156.152 149.848 156.571 150.135 157.052C150.428 157.532 150.574 158.098 150.574 158.748C150.574 159.785 150.17 160.617 149.361 161.244C148.553 161.865 147.472 162.176 146.118 162.176C145.239 162.176 144.419 162.009 143.657 161.675C142.896 161.335 142.307 160.872 141.891 160.286C141.48 159.7 141.275 159.035 141.275 158.291H142.972C142.972 159.064 143.256 159.677 143.824 160.128C144.398 160.573 145.163 160.796 146.118 160.796C147.009 160.796 147.691 160.614 148.166 160.251C148.641 159.888 148.878 159.393 148.878 158.766C148.878 158.139 148.658 157.655 148.219 157.315C147.779 156.97 146.982 156.63 145.828 156.296ZM161.587 150.592H157.474V162H155.795V150.592H151.69V149.203H161.587V150.592Z" fill="white"/>
<path d="M74.9883 191.232C75.375 191.232 75.7129 191.115 76.002 190.881C76.291 190.646 76.4512 190.354 76.4824 190.002H77.5078C77.4883 190.365 77.3633 190.711 77.1328 191.039C76.9023 191.367 76.5938 191.629 76.207 191.824C75.8242 192.02 75.418 192.117 74.9883 192.117C74.125 192.117 73.4375 191.83 72.9258 191.256C72.418 190.678 72.1641 189.889 72.1641 188.889V188.707C72.1641 188.09 72.2773 187.541 72.5039 187.061C72.7305 186.58 73.0547 186.207 73.4766 185.941C73.9023 185.676 74.4043 185.543 74.9824 185.543C75.6934 185.543 76.2832 185.756 76.752 186.182C77.2246 186.607 77.4766 187.16 77.5078 187.84H76.4824C76.4512 187.43 76.2949 187.094 76.0137 186.832C75.7363 186.566 75.3926 186.434 74.9824 186.434C74.4316 186.434 74.0039 186.633 73.6992 187.031C73.3984 187.426 73.248 187.998 73.248 188.748V188.953C73.248 189.684 73.3984 190.246 73.6992 190.641C74 191.035 74.4297 191.232 74.9883 191.232ZM82.6406 192C82.5781 191.875 82.5273 191.652 82.4883 191.332C81.9844 191.855 81.3828 192.117 80.6836 192.117C80.0586 192.117 79.5449 191.941 79.1426 191.59C78.7441 191.234 78.5449 190.785 78.5449 190.242C78.5449 189.582 78.7949 189.07 79.2949 188.707C79.7988 188.34 80.5059 188.156 81.416 188.156H82.4707V187.658C82.4707 187.279 82.3574 186.979 82.1309 186.756C81.9043 186.529 81.5703 186.416 81.1289 186.416C80.7422 186.416 80.418 186.514 80.1562 186.709C79.8945 186.904 79.7637 187.141 79.7637 187.418H78.6738C78.6738 187.102 78.7852 186.797 79.0078 186.504C79.2344 186.207 79.5391 185.973 79.9219 185.801C80.3086 185.629 80.7324 185.543 81.1934 185.543C81.9238 185.543 82.4961 185.727 82.9102 186.094C83.3242 186.457 83.5391 186.959 83.5547 187.6V190.518C83.5547 191.1 83.6289 191.562 83.7773 191.906V192H82.6406ZM80.8418 191.174C81.1816 191.174 81.5039 191.086 81.8086 190.91C82.1133 190.734 82.334 190.506 82.4707 190.225V188.924H81.6211C80.293 188.924 79.6289 189.312 79.6289 190.09C79.6289 190.43 79.7422 190.695 79.9688 190.887C80.1953 191.078 80.4863 191.174 80.8418 191.174ZM84.9902 188.777C84.9902 187.805 85.2207 187.023 85.6816 186.434C86.1426 185.84 86.7461 185.543 87.4922 185.543C88.2344 185.543 88.8223 185.797 89.2559 186.305V183H90.3398V192H89.3438L89.291 191.32C88.8574 191.852 88.2539 192.117 87.4805 192.117C86.7461 192.117 86.1465 191.816 85.6816 191.215C85.2207 190.613 84.9902 189.828 84.9902 188.859V188.777ZM86.0742 188.9C86.0742 189.619 86.2227 190.182 86.5195 190.588C86.8164 190.994 87.2266 191.197 87.75 191.197C88.4375 191.197 88.9395 190.889 89.2559 190.271V187.359C88.9316 186.762 88.4336 186.463 87.7617 186.463C87.2305 186.463 86.8164 186.668 86.5195 187.078C86.2227 187.488 86.0742 188.096 86.0742 188.9ZM95.9414 192C95.8789 191.875 95.8281 191.652 95.7891 191.332C95.2852 191.855 94.6836 192.117 93.9844 192.117C93.3594 192.117 92.8457 191.941 92.4434 191.59C92.0449 191.234 91.8457 190.785 91.8457 190.242C91.8457 189.582 92.0957 189.07 92.5957 188.707C93.0996 188.34 93.8066 188.156 94.7168 188.156H95.7715V187.658C95.7715 187.279 95.6582 186.979 95.4316 186.756C95.2051 186.529 94.8711 186.416 94.4297 186.416C94.043 186.416 93.7188 186.514 93.457 186.709C93.1953 186.904 93.0645 187.141 93.0645 187.418H91.9746C91.9746 187.102 92.0859 186.797 92.3086 186.504C92.5352 186.207 92.8398 185.973 93.2227 185.801C93.6094 185.629 94.0332 185.543 94.4941 185.543C95.2246 185.543 95.7969 185.727 96.2109 186.094C96.625 186.457 96.8398 186.959 96.8555 187.6V190.518C96.8555 191.1 96.9297 191.562 97.0781 191.906V192H95.9414ZM94.1426 191.174C94.4824 191.174 94.8047 191.086 95.1094 190.91C95.4141 190.734 95.6348 190.506 95.7715 190.225V188.924H94.9219C93.5938 188.924 92.9297 189.312 92.9297 190.09C92.9297 190.43 93.043 190.695 93.2695 190.887C93.4961 191.078 93.7871 191.174 94.1426 191.174ZM102.246 190.318C102.246 190.025 102.135 189.799 101.912 189.639C101.693 189.475 101.309 189.334 100.758 189.217C100.211 189.1 99.7754 188.959 99.4512 188.795C99.1309 188.631 98.8926 188.436 98.7363 188.209C98.584 187.982 98.5078 187.713 98.5078 187.4C98.5078 186.881 98.7266 186.441 99.1641 186.082C99.6055 185.723 100.168 185.543 100.852 185.543C101.57 185.543 102.152 185.729 102.598 186.1C103.047 186.471 103.271 186.945 103.271 187.523H102.182C102.182 187.227 102.055 186.971 101.801 186.756C101.551 186.541 101.234 186.434 100.852 186.434C100.457 186.434 100.148 186.52 99.9258 186.691C99.7031 186.863 99.5918 187.088 99.5918 187.365C99.5918 187.627 99.6953 187.824 99.9023 187.957C100.109 188.09 100.482 188.217 101.021 188.338C101.564 188.459 102.004 188.604 102.34 188.771C102.676 188.939 102.924 189.143 103.084 189.381C103.248 189.615 103.33 189.902 103.33 190.242C103.33 190.809 103.104 191.264 102.65 191.607C102.197 191.947 101.609 192.117 100.887 192.117C100.379 192.117 99.9297 192.027 99.5391 191.848C99.1484 191.668 98.8418 191.418 98.6191 191.098C98.4004 190.773 98.291 190.424 98.291 190.049H99.375C99.3945 190.412 99.5391 190.701 99.8086 190.916C100.082 191.127 100.441 191.232 100.887 191.232C101.297 191.232 101.625 191.15 101.871 190.986C102.121 190.818 102.246 190.596 102.246 190.318ZM106.213 184.125V185.66H107.396V186.498H106.213V190.43C106.213 190.684 106.266 190.875 106.371 191.004C106.477 191.129 106.656 191.191 106.91 191.191C107.035 191.191 107.207 191.168 107.426 191.121V192C107.141 192.078 106.863 192.117 106.594 192.117C106.109 192.117 105.744 191.971 105.498 191.678C105.252 191.385 105.129 190.969 105.129 190.43V186.498H103.975V185.66H105.129V184.125H106.213ZM111.732 186.633C111.568 186.605 111.391 186.592 111.199 186.592C110.488 186.592 110.006 186.895 109.752 187.5V192H108.668V185.66H109.723L109.74 186.393C110.096 185.826 110.6 185.543 111.252 185.543C111.463 185.543 111.623 185.57 111.732 185.625V186.633ZM112.33 188.771C112.33 188.15 112.451 187.592 112.693 187.096C112.939 186.6 113.279 186.217 113.713 185.947C114.15 185.678 114.648 185.543 115.207 185.543C116.07 185.543 116.768 185.842 117.299 186.439C117.834 187.037 118.102 187.832 118.102 188.824V188.9C118.102 189.518 117.982 190.072 117.744 190.564C117.51 191.053 117.172 191.434 116.73 191.707C116.293 191.98 115.789 192.117 115.219 192.117C114.359 192.117 113.662 191.818 113.127 191.221C112.596 190.623 112.33 189.832 112.33 188.848V188.771ZM113.42 188.9C113.42 189.604 113.582 190.168 113.906 190.594C114.234 191.02 114.672 191.232 115.219 191.232C115.77 191.232 116.207 191.018 116.531 190.588C116.855 190.154 117.018 189.549 117.018 188.771C117.018 188.076 116.852 187.514 116.52 187.084C116.191 186.65 115.754 186.434 115.207 186.434C114.672 186.434 114.24 186.646 113.912 187.072C113.584 187.498 113.42 188.107 113.42 188.9ZM124.031 192.885H118.664V192H124.031V192.885ZM128.789 192C128.727 191.875 128.676 191.652 128.637 191.332C128.133 191.855 127.531 192.117 126.832 192.117C126.207 192.117 125.693 191.941 125.291 191.59C124.893 191.234 124.693 190.785 124.693 190.242C124.693 189.582 124.943 189.07 125.443 188.707C125.947 188.34 126.654 188.156 127.564 188.156H128.619V187.658C128.619 187.279 128.506 186.979 128.279 186.756C128.053 186.529 127.719 186.416 127.277 186.416C126.891 186.416 126.566 186.514 126.305 186.709C126.043 186.904 125.912 187.141 125.912 187.418H124.822C124.822 187.102 124.934 186.797 125.156 186.504C125.383 186.207 125.688 185.973 126.07 185.801C126.457 185.629 126.881 185.543 127.342 185.543C128.072 185.543 128.645 185.727 129.059 186.094C129.473 186.457 129.688 186.959 129.703 187.6V190.518C129.703 191.1 129.777 191.562 129.926 191.906V192H128.789ZM126.99 191.174C127.33 191.174 127.652 191.086 127.957 190.91C128.262 190.734 128.482 190.506 128.619 190.225V188.924H127.77C126.441 188.924 125.777 189.312 125.777 190.09C125.777 190.43 125.891 190.695 126.117 190.887C126.344 191.078 126.635 191.174 126.99 191.174ZM136.758 188.9C136.758 189.865 136.537 190.643 136.096 191.232C135.654 191.822 135.057 192.117 134.303 192.117C133.533 192.117 132.928 191.873 132.486 191.385V194.438H131.402V185.66H132.393L132.445 186.363C132.887 185.816 133.5 185.543 134.285 185.543C135.047 185.543 135.648 185.83 136.09 186.404C136.535 186.979 136.758 187.777 136.758 188.801V188.9ZM135.674 188.777C135.674 188.062 135.521 187.498 135.217 187.084C134.912 186.67 134.494 186.463 133.963 186.463C133.307 186.463 132.814 186.754 132.486 187.336V190.365C132.811 190.943 133.307 191.232 133.975 191.232C134.494 191.232 134.906 191.027 135.211 190.617C135.52 190.203 135.674 189.59 135.674 188.777ZM139.318 192H138.234V185.66H139.318V192ZM138.146 183.979C138.146 183.803 138.199 183.654 138.305 183.533C138.414 183.412 138.574 183.352 138.785 183.352C138.996 183.352 139.156 183.412 139.266 183.533C139.375 183.654 139.43 183.803 139.43 183.979C139.43 184.154 139.375 184.301 139.266 184.418C139.156 184.535 138.996 184.594 138.785 184.594C138.574 184.594 138.414 184.535 138.305 184.418C138.199 184.301 138.146 184.154 138.146 183.979ZM144.123 186.633C143.959 186.605 143.781 186.592 143.59 186.592C142.879 186.592 142.396 186.895 142.143 187.5V192H141.059V185.66H142.113L142.131 186.393C142.486 185.826 142.99 185.543 143.643 185.543C143.854 185.543 144.014 185.57 144.123 185.625V186.633ZM147.639 192.117C146.779 192.117 146.08 191.836 145.541 191.273C145.002 190.707 144.732 189.951 144.732 189.006V188.807C144.732 188.178 144.852 187.617 145.09 187.125C145.332 186.629 145.668 186.242 146.098 185.965C146.531 185.684 147 185.543 147.504 185.543C148.328 185.543 148.969 185.814 149.426 186.357C149.883 186.9 150.111 187.678 150.111 188.689V189.141H145.816C145.832 189.766 146.014 190.271 146.361 190.658C146.713 191.041 147.158 191.232 147.697 191.232C148.08 191.232 148.404 191.154 148.67 190.998C148.936 190.842 149.168 190.635 149.367 190.377L150.029 190.893C149.498 191.709 148.701 192.117 147.639 192.117ZM147.504 186.434C147.066 186.434 146.699 186.594 146.402 186.914C146.105 187.23 145.922 187.676 145.852 188.25H149.027V188.168C148.996 187.617 148.848 187.191 148.582 186.891C148.316 186.586 147.957 186.434 147.504 186.434ZM155.062 190.318C155.062 190.025 154.951 189.799 154.729 189.639C154.51 189.475 154.125 189.334 153.574 189.217C153.027 189.1 152.592 188.959 152.268 188.795C151.947 188.631 151.709 188.436 151.553 188.209C151.4 187.982 151.324 187.713 151.324 187.4C151.324 186.881 151.543 186.441 151.98 186.082C152.422 185.723 152.984 185.543 153.668 185.543C154.387 185.543 154.969 185.729 155.414 186.1C155.863 186.471 156.088 186.945 156.088 187.523H154.998C154.998 187.227 154.871 186.971 154.617 186.756C154.367 186.541 154.051 186.434 153.668 186.434C153.273 186.434 152.965 186.52 152.742 186.691C152.52 186.863 152.408 187.088 152.408 187.365C152.408 187.627 152.512 187.824 152.719 187.957C152.926 188.09 153.299 188.217 153.838 188.338C154.381 188.459 154.82 188.604 155.156 188.771C155.492 188.939 155.74 189.143 155.9 189.381C156.064 189.615 156.146 189.902 156.146 190.242C156.146 190.809 155.92 191.264 155.467 191.607C155.014 191.947 154.426 192.117 153.703 192.117C153.195 192.117 152.746 192.027 152.355 191.848C151.965 191.668 151.658 191.418 151.436 191.098C151.217 190.773 151.107 190.424 151.107 190.049H152.191C152.211 190.412 152.355 190.701 152.625 190.916C152.898 191.127 153.258 191.232 153.703 191.232C154.113 191.232 154.441 191.15 154.688 190.986C154.938 190.818 155.062 190.596 155.062 190.318ZM159.029 184.125V185.66H160.213V186.498H159.029V190.43C159.029 190.684 159.082 190.875 159.188 191.004C159.293 191.129 159.473 191.191 159.727 191.191C159.852 191.191 160.023 191.168 160.242 191.121V192C159.957 192.078 159.68 192.117 159.41 192.117C158.926 192.117 158.561 191.971 158.314 191.678C158.068 191.385 157.945 190.969 157.945 190.43V186.498H156.791V185.66H157.945V184.125H159.029ZM162.018 192V186.498H161.016V185.66H162.018V185.01C162.018 184.33 162.199 183.805 162.562 183.434C162.926 183.062 163.439 182.877 164.104 182.877C164.354 182.877 164.602 182.91 164.848 182.977L164.789 183.855C164.605 183.82 164.41 183.803 164.203 183.803C163.852 183.803 163.58 183.906 163.389 184.113C163.197 184.316 163.102 184.609 163.102 184.992V185.66H164.455V186.498H163.102V192H162.018ZM169.57 191.373C169.148 191.869 168.529 192.117 167.713 192.117C167.037 192.117 166.521 191.922 166.166 191.531C165.814 191.137 165.637 190.555 165.633 189.785V185.66H166.717V189.756C166.717 190.717 167.107 191.197 167.889 191.197C168.717 191.197 169.268 190.889 169.541 190.271V185.66H170.625V192H169.594L169.57 191.373ZM173.455 192H172.371V183H173.455V192Z" fill="white"/>
<path d="M376.814 151.349H371.444V157H369.757V144.203H377.685V145.592H371.444V149.969H376.814V151.349ZM381.517 157H379.829V144.203H381.517V157ZM386.307 155.62H392.371V157H384.61V144.203H386.307V155.62ZM401.538 153.66H396.177L394.973 157H393.232L398.119 144.203H399.596L404.491 157H402.76L401.538 153.66ZM396.687 152.271H401.037L398.857 146.286L396.687 152.271Z" fill="white"/>
<path d="M602.794 172.849C603.374 172.849 603.881 172.673 604.314 172.321C604.748 171.97 604.988 171.53 605.035 171.003H606.573C606.544 171.548 606.356 172.066 606.011 172.559C605.665 173.051 605.202 173.443 604.622 173.736C604.048 174.029 603.438 174.176 602.794 174.176C601.499 174.176 600.468 173.745 599.7 172.884C598.938 172.017 598.558 170.833 598.558 169.333V169.061C598.558 168.135 598.728 167.312 599.067 166.591C599.407 165.87 599.894 165.311 600.526 164.912C601.165 164.514 601.918 164.314 602.785 164.314C603.852 164.314 604.736 164.634 605.439 165.272C606.148 165.911 606.526 166.74 606.573 167.76H605.035C604.988 167.145 604.754 166.641 604.332 166.248C603.916 165.85 603.4 165.65 602.785 165.65C601.959 165.65 601.317 165.949 600.86 166.547C600.409 167.139 600.184 167.997 600.184 169.122V169.43C600.184 170.525 600.409 171.369 600.86 171.961C601.312 172.553 601.956 172.849 602.794 172.849ZM614.272 174C614.179 173.812 614.103 173.479 614.044 172.998C613.288 173.783 612.386 174.176 611.337 174.176C610.399 174.176 609.629 173.912 609.025 173.385C608.428 172.852 608.129 172.178 608.129 171.363C608.129 170.373 608.504 169.605 609.254 169.061C610.01 168.51 611.07 168.234 612.436 168.234H614.018V167.487C614.018 166.919 613.848 166.468 613.508 166.134C613.168 165.794 612.667 165.624 612.005 165.624C611.425 165.624 610.938 165.771 610.546 166.063C610.153 166.356 609.957 166.711 609.957 167.127H608.322C608.322 166.652 608.489 166.195 608.823 165.756C609.163 165.311 609.62 164.959 610.194 164.701C610.774 164.443 611.41 164.314 612.102 164.314C613.197 164.314 614.056 164.59 614.677 165.141C615.298 165.686 615.62 166.438 615.644 167.399V171.776C615.644 172.649 615.755 173.344 615.978 173.859V174H614.272ZM611.574 172.761C612.084 172.761 612.567 172.629 613.024 172.365C613.481 172.102 613.812 171.759 614.018 171.337V169.386H612.743C610.751 169.386 609.755 169.969 609.755 171.135C609.755 171.645 609.925 172.043 610.265 172.33C610.604 172.617 611.041 172.761 611.574 172.761ZM617.797 169.166C617.797 167.707 618.143 166.535 618.834 165.65C619.525 164.76 620.431 164.314 621.55 164.314C622.663 164.314 623.545 164.695 624.195 165.457V160.5H625.821V174H624.327L624.248 172.98C623.598 173.777 622.692 174.176 621.532 174.176C620.431 174.176 619.531 173.725 618.834 172.822C618.143 171.92 617.797 170.742 617.797 169.289V169.166ZM619.423 169.351C619.423 170.429 619.646 171.272 620.091 171.882C620.536 172.491 621.151 172.796 621.937 172.796C622.968 172.796 623.721 172.333 624.195 171.407V167.039C623.709 166.143 622.962 165.694 621.954 165.694C621.157 165.694 620.536 166.002 620.091 166.617C619.646 167.232 619.423 168.144 619.423 169.351ZM634.224 174C634.13 173.812 634.054 173.479 633.995 172.998C633.239 173.783 632.337 174.176 631.288 174.176C630.351 174.176 629.58 173.912 628.977 173.385C628.379 172.852 628.08 172.178 628.08 171.363C628.08 170.373 628.455 169.605 629.205 169.061C629.961 168.51 631.021 168.234 632.387 168.234H633.969V167.487C633.969 166.919 633.799 166.468 633.459 166.134C633.119 165.794 632.618 165.624 631.956 165.624C631.376 165.624 630.89 165.771 630.497 166.063C630.104 166.356 629.908 166.711 629.908 167.127H628.273C628.273 166.652 628.44 166.195 628.774 165.756C629.114 165.311 629.571 164.959 630.146 164.701C630.726 164.443 631.361 164.314 632.053 164.314C633.148 164.314 634.007 164.59 634.628 165.141C635.249 165.686 635.571 166.438 635.595 167.399V171.776C635.595 172.649 635.706 173.344 635.929 173.859V174H634.224ZM631.525 172.761C632.035 172.761 632.519 172.629 632.976 172.365C633.433 172.102 633.764 171.759 633.969 171.337V169.386H632.694C630.702 169.386 629.706 169.969 629.706 171.135C629.706 171.645 629.876 172.043 630.216 172.33C630.556 172.617 630.992 172.761 631.525 172.761ZM643.681 171.478C643.681 171.038 643.514 170.698 643.18 170.458C642.852 170.212 642.274 170.001 641.448 169.825C640.628 169.649 639.975 169.438 639.488 169.192C639.008 168.946 638.65 168.653 638.416 168.313C638.188 167.974 638.073 167.569 638.073 167.101C638.073 166.321 638.401 165.662 639.058 165.123C639.72 164.584 640.563 164.314 641.589 164.314C642.667 164.314 643.54 164.593 644.208 165.149C644.882 165.706 645.219 166.418 645.219 167.285H643.584C643.584 166.84 643.394 166.456 643.013 166.134C642.638 165.812 642.163 165.65 641.589 165.65C640.997 165.65 640.534 165.779 640.2 166.037C639.866 166.295 639.699 166.632 639.699 167.048C639.699 167.44 639.854 167.736 640.165 167.936C640.476 168.135 641.035 168.325 641.844 168.507C642.658 168.688 643.317 168.905 643.821 169.157C644.325 169.409 644.697 169.714 644.938 170.071C645.184 170.423 645.307 170.854 645.307 171.363C645.307 172.213 644.967 172.896 644.287 173.411C643.607 173.921 642.726 174.176 641.642 174.176C640.88 174.176 640.206 174.041 639.62 173.771C639.034 173.502 638.574 173.127 638.24 172.646C637.912 172.16 637.748 171.636 637.748 171.073H639.374C639.403 171.618 639.62 172.052 640.024 172.374C640.435 172.69 640.974 172.849 641.642 172.849C642.257 172.849 642.749 172.726 643.118 172.479C643.493 172.228 643.681 171.894 643.681 171.478ZM649.631 162.188V164.49H651.406V165.747H649.631V171.645C649.631 172.025 649.71 172.312 649.868 172.506C650.026 172.693 650.296 172.787 650.677 172.787C650.864 172.787 651.122 172.752 651.45 172.682V174C651.022 174.117 650.606 174.176 650.202 174.176C649.476 174.176 648.928 173.956 648.559 173.517C648.189 173.077 648.005 172.453 648.005 171.645V165.747H646.273V164.49H648.005V162.188H649.631ZM657.91 165.949C657.664 165.908 657.397 165.888 657.11 165.888C656.044 165.888 655.32 166.342 654.939 167.25V174H653.313V164.49H654.896L654.922 165.589C655.455 164.739 656.211 164.314 657.189 164.314C657.506 164.314 657.746 164.355 657.91 164.438V165.949ZM658.807 169.157C658.807 168.226 658.988 167.388 659.352 166.644C659.721 165.899 660.23 165.325 660.881 164.921C661.537 164.517 662.284 164.314 663.122 164.314C664.417 164.314 665.463 164.763 666.26 165.659C667.062 166.556 667.464 167.748 667.464 169.236V169.351C667.464 170.276 667.285 171.108 666.928 171.847C666.576 172.579 666.069 173.15 665.407 173.561C664.751 173.971 663.995 174.176 663.14 174.176C661.851 174.176 660.805 173.728 660.002 172.831C659.205 171.935 658.807 170.748 658.807 169.271V169.157ZM660.441 169.351C660.441 170.405 660.685 171.252 661.171 171.891C661.663 172.529 662.319 172.849 663.14 172.849C663.966 172.849 664.622 172.526 665.108 171.882C665.595 171.231 665.838 170.323 665.838 169.157C665.838 168.114 665.589 167.271 665.091 166.626C664.599 165.976 663.942 165.65 663.122 165.65C662.319 165.65 661.672 165.97 661.18 166.608C660.688 167.247 660.441 168.161 660.441 169.351ZM676.358 175.327H668.308V174H676.358V175.327ZM683.495 173.06C682.862 173.804 681.934 174.176 680.709 174.176C679.695 174.176 678.922 173.883 678.389 173.297C677.861 172.705 677.595 171.832 677.589 170.678V164.49H679.215V170.634C679.215 172.075 679.801 172.796 680.973 172.796C682.215 172.796 683.041 172.333 683.451 171.407V164.49H685.077V174H683.53L683.495 173.06ZM693.093 171.478C693.093 171.038 692.926 170.698 692.592 170.458C692.264 170.212 691.687 170.001 690.86 169.825C690.04 169.649 689.387 169.438 688.9 169.192C688.42 168.946 688.062 168.653 687.828 168.313C687.6 167.974 687.485 167.569 687.485 167.101C687.485 166.321 687.813 165.662 688.47 165.123C689.132 164.584 689.976 164.314 691.001 164.314C692.079 164.314 692.952 164.593 693.62 165.149C694.294 165.706 694.631 166.418 694.631 167.285H692.996C692.996 166.84 692.806 166.456 692.425 166.134C692.05 165.812 691.575 165.65 691.001 165.65C690.409 165.65 689.946 165.779 689.612 166.037C689.278 166.295 689.111 166.632 689.111 167.048C689.111 167.44 689.267 167.736 689.577 167.936C689.888 168.135 690.447 168.325 691.256 168.507C692.07 168.688 692.729 168.905 693.233 169.157C693.737 169.409 694.109 169.714 694.35 170.071C694.596 170.423 694.719 170.854 694.719 171.363C694.719 172.213 694.379 172.896 693.699 173.411C693.02 173.921 692.138 174.176 691.054 174.176C690.292 174.176 689.618 174.041 689.032 173.771C688.446 173.502 687.986 173.127 687.652 172.646C687.324 172.16 687.16 171.636 687.16 171.073H688.786C688.815 171.618 689.032 172.052 689.437 172.374C689.847 172.69 690.386 172.849 691.054 172.849C691.669 172.849 692.161 172.726 692.53 172.479C692.905 172.228 693.093 171.894 693.093 171.478ZM700.783 174.176C699.494 174.176 698.445 173.754 697.637 172.91C696.828 172.061 696.424 170.927 696.424 169.509V169.21C696.424 168.267 696.603 167.426 696.96 166.688C697.323 165.943 697.827 165.363 698.472 164.947C699.122 164.525 699.825 164.314 700.581 164.314C701.817 164.314 702.778 164.722 703.464 165.536C704.149 166.351 704.492 167.517 704.492 169.034V169.711H698.05C698.073 170.648 698.346 171.407 698.867 171.987C699.395 172.562 700.062 172.849 700.871 172.849C701.445 172.849 701.932 172.731 702.33 172.497C702.729 172.263 703.077 171.952 703.376 171.565L704.369 172.339C703.572 173.563 702.377 174.176 700.783 174.176ZM700.581 165.65C699.925 165.65 699.374 165.891 698.929 166.371C698.483 166.846 698.208 167.514 698.103 168.375H702.866V168.252C702.819 167.426 702.597 166.787 702.198 166.336C701.8 165.879 701.261 165.65 700.581 165.65ZM710.979 165.949C710.732 165.908 710.466 165.888 710.179 165.888C709.112 165.888 708.389 166.342 708.008 167.25V174H706.382V164.49H707.964L707.99 165.589C708.523 164.739 709.279 164.314 710.258 164.314C710.574 164.314 710.814 164.355 710.979 164.438V165.949Z" fill="white"/>
<path d="M606.477 352V339.203H610.089C611.202 339.203 612.187 339.449 613.042 339.941C613.897 340.434 614.557 341.134 615.02 342.042C615.488 342.95 615.726 343.993 615.731 345.171V345.988C615.731 347.195 615.497 348.253 615.028 349.161C614.565 350.069 613.9 350.767 613.033 351.253C612.172 351.739 611.167 351.988 610.019 352H606.477ZM608.164 340.592V350.62H609.939C611.24 350.62 612.251 350.216 612.972 349.407C613.698 348.599 614.062 347.447 614.062 345.953V345.206C614.062 343.753 613.719 342.625 613.033 341.822C612.354 341.014 611.387 340.604 610.133 340.592H608.164ZM618.289 352V339.203H622.473C623.861 339.203 624.904 339.49 625.602 340.064C626.305 340.639 626.656 341.488 626.656 342.613C626.656 343.211 626.486 343.741 626.146 344.204C625.807 344.661 625.344 345.016 624.758 345.268C625.449 345.461 625.994 345.83 626.393 346.375C626.797 346.914 626.999 347.559 626.999 348.309C626.999 349.457 626.627 350.359 625.883 351.016C625.139 351.672 624.087 352 622.728 352H618.289ZM619.977 346.015V350.62H622.763C623.548 350.62 624.166 350.418 624.617 350.014C625.074 349.604 625.303 349.041 625.303 348.326C625.303 346.785 624.465 346.015 622.789 346.015H619.977ZM619.977 344.661H622.525C623.264 344.661 623.853 344.477 624.292 344.107C624.737 343.738 624.96 343.237 624.96 342.604C624.96 341.901 624.755 341.392 624.345 341.075C623.935 340.753 623.311 340.592 622.473 340.592H619.977V344.661ZM635.656 346.99V352H633.969V339.203H638.688C640.089 339.203 641.185 339.561 641.976 340.275C642.772 340.99 643.171 341.937 643.171 343.114C643.171 344.356 642.781 345.314 642.002 345.988C641.229 346.656 640.118 346.99 638.671 346.99H635.656ZM635.656 345.61H638.688C639.591 345.61 640.282 345.399 640.763 344.978C641.243 344.55 641.483 343.935 641.483 343.132C641.483 342.37 641.243 341.761 640.763 341.304C640.282 340.847 639.623 340.609 638.785 340.592H635.656V345.61ZM644.516 347.157C644.516 346.226 644.697 345.388 645.061 344.644C645.43 343.899 645.939 343.325 646.59 342.921C647.246 342.517 647.993 342.314 648.831 342.314C650.126 342.314 651.172 342.763 651.969 343.659C652.771 344.556 653.173 345.748 653.173 347.236V347.351C653.173 348.276 652.994 349.108 652.637 349.847C652.285 350.579 651.778 351.15 651.116 351.561C650.46 351.971 649.704 352.176 648.849 352.176C647.56 352.176 646.514 351.728 645.711 350.831C644.914 349.935 644.516 348.748 644.516 347.271V347.157ZM646.15 347.351C646.15 348.405 646.394 349.252 646.88 349.891C647.372 350.529 648.028 350.849 648.849 350.849C649.675 350.849 650.331 350.526 650.817 349.882C651.304 349.231 651.547 348.323 651.547 347.157C651.547 346.114 651.298 345.271 650.8 344.626C650.308 343.976 649.651 343.65 648.831 343.65C648.028 343.65 647.381 343.97 646.889 344.608C646.396 345.247 646.15 346.161 646.15 347.351ZM660.749 349.478C660.749 349.038 660.582 348.698 660.248 348.458C659.92 348.212 659.343 348.001 658.517 347.825C657.696 347.649 657.043 347.438 656.557 347.192C656.076 346.946 655.719 346.653 655.484 346.313C655.256 345.974 655.142 345.569 655.142 345.101C655.142 344.321 655.47 343.662 656.126 343.123C656.788 342.584 657.632 342.314 658.657 342.314C659.735 342.314 660.608 342.593 661.276 343.149C661.95 343.706 662.287 344.418 662.287 345.285H660.652C660.652 344.84 660.462 344.456 660.081 344.134C659.706 343.812 659.231 343.65 658.657 343.65C658.065 343.65 657.603 343.779 657.269 344.037C656.935 344.295 656.768 344.632 656.768 345.048C656.768 345.44 656.923 345.736 657.233 345.936C657.544 346.135 658.104 346.325 658.912 346.507C659.727 346.688 660.386 346.905 660.89 347.157C661.394 347.409 661.766 347.714 662.006 348.071C662.252 348.423 662.375 348.854 662.375 349.363C662.375 350.213 662.035 350.896 661.355 351.411C660.676 351.921 659.794 352.176 658.71 352.176C657.948 352.176 657.274 352.041 656.688 351.771C656.103 351.502 655.643 351.127 655.309 350.646C654.98 350.16 654.816 349.636 654.816 349.073H656.442C656.472 349.618 656.688 350.052 657.093 350.374C657.503 350.69 658.042 350.849 658.71 350.849C659.325 350.849 659.817 350.726 660.187 350.479C660.562 350.228 660.749 349.894 660.749 349.478ZM666.699 340.188V342.49H668.475V343.747H666.699V349.645C666.699 350.025 666.778 350.312 666.937 350.506C667.095 350.693 667.364 350.787 667.745 350.787C667.933 350.787 668.19 350.752 668.519 350.682V352C668.091 352.117 667.675 352.176 667.271 352.176C666.544 352.176 665.996 351.956 665.627 351.517C665.258 351.077 665.073 350.453 665.073 349.645V343.747H663.342V342.49H665.073V340.188H666.699ZM669.995 347.166C669.995 345.684 670.338 344.506 671.023 343.633C671.709 342.754 672.617 342.314 673.748 342.314C674.908 342.314 675.813 342.725 676.464 343.545L676.543 342.49H678.028V351.771C678.028 353.002 677.662 353.972 676.93 354.681C676.203 355.39 675.225 355.744 673.994 355.744C673.309 355.744 672.638 355.598 671.981 355.305C671.325 355.012 670.824 354.61 670.479 354.101L671.322 353.125C672.02 353.986 672.872 354.417 673.88 354.417C674.671 354.417 675.286 354.194 675.726 353.749C676.171 353.304 676.394 352.677 676.394 351.868V351.051C675.743 351.801 674.855 352.176 673.73 352.176C672.617 352.176 671.715 351.728 671.023 350.831C670.338 349.935 669.995 348.713 669.995 347.166ZM671.63 347.351C671.63 348.423 671.85 349.267 672.289 349.882C672.729 350.491 673.344 350.796 674.135 350.796C675.16 350.796 675.913 350.33 676.394 349.398V345.057C675.896 344.148 675.148 343.694 674.152 343.694C673.361 343.694 672.743 344.002 672.298 344.617C671.853 345.232 671.63 346.144 671.63 347.351ZM685.086 343.949C684.84 343.908 684.573 343.888 684.286 343.888C683.22 343.888 682.496 344.342 682.115 345.25V352H680.489V342.49H682.071L682.098 343.589C682.631 342.739 683.387 342.314 684.365 342.314C684.682 342.314 684.922 342.355 685.086 342.438V343.949ZM690.359 352.176C689.07 352.176 688.021 351.754 687.213 350.91C686.404 350.061 686 348.927 686 347.509V347.21C686 346.267 686.179 345.426 686.536 344.688C686.899 343.943 687.403 343.363 688.048 342.947C688.698 342.525 689.401 342.314 690.157 342.314C691.394 342.314 692.354 342.722 693.04 343.536C693.726 344.351 694.068 345.517 694.068 347.034V347.711H687.626C687.649 348.648 687.922 349.407 688.443 349.987C688.971 350.562 689.639 350.849 690.447 350.849C691.021 350.849 691.508 350.731 691.906 350.497C692.305 350.263 692.653 349.952 692.952 349.565L693.945 350.339C693.148 351.563 691.953 352.176 690.359 352.176ZM690.157 343.65C689.501 343.65 688.95 343.891 688.505 344.371C688.06 344.846 687.784 345.514 687.679 346.375H692.442V346.252C692.396 345.426 692.173 344.787 691.774 344.336C691.376 343.879 690.837 343.65 690.157 343.65ZM701.495 349.478C701.495 349.038 701.328 348.698 700.994 348.458C700.666 348.212 700.089 348.001 699.263 347.825C698.442 347.649 697.789 347.438 697.303 347.192C696.822 346.946 696.465 346.653 696.23 346.313C696.002 345.974 695.888 345.569 695.888 345.101C695.888 344.321 696.216 343.662 696.872 343.123C697.534 342.584 698.378 342.314 699.403 342.314C700.481 342.314 701.354 342.593 702.022 343.149C702.696 343.706 703.033 344.418 703.033 345.285H701.398C701.398 344.84 701.208 344.456 700.827 344.134C700.452 343.812 699.978 343.65 699.403 343.65C698.812 343.65 698.349 343.779 698.015 344.037C697.681 344.295 697.514 344.632 697.514 345.048C697.514 345.44 697.669 345.736 697.979 345.936C698.29 346.135 698.85 346.325 699.658 346.507C700.473 346.688 701.132 346.905 701.636 347.157C702.14 347.409 702.512 347.714 702.752 348.071C702.998 348.423 703.121 348.854 703.121 349.363C703.121 350.213 702.781 350.896 702.102 351.411C701.422 351.921 700.54 352.176 699.456 352.176C698.694 352.176 698.021 352.041 697.435 351.771C696.849 351.502 696.389 351.127 696.055 350.646C695.727 350.16 695.562 349.636 695.562 349.073H697.188C697.218 349.618 697.435 350.052 697.839 350.374C698.249 350.69 698.788 350.849 699.456 350.849C700.071 350.849 700.563 350.726 700.933 350.479C701.308 350.228 701.495 349.894 701.495 349.478Z" fill="white"/>
<path d="M67.167 260.288H63.8311V259.256H67.167V260.288ZM75.0078 259.563C73.8822 259.24 73.0618 258.843 72.5469 258.374C72.0365 257.9 71.7812 257.317 71.7812 256.624C71.7812 255.84 72.0934 255.193 72.7178 254.683C73.3467 254.168 74.1624 253.91 75.165 253.91C75.8486 253.91 76.457 254.042 76.9902 254.307C77.528 254.571 77.9427 254.936 78.2344 255.4C78.5306 255.865 78.6787 256.373 78.6787 256.925H77.3594C77.3594 256.323 77.168 255.852 76.7852 255.51C76.4023 255.163 75.8623 254.99 75.165 254.99C74.5179 254.99 74.012 255.134 73.6475 255.421C73.2874 255.703 73.1074 256.098 73.1074 256.604C73.1074 257.009 73.2783 257.353 73.6201 257.636C73.9665 257.914 74.5521 258.169 75.377 258.401C76.2064 258.634 76.8535 258.891 77.3184 259.174C77.7878 259.452 78.1341 259.778 78.3574 260.151C78.5853 260.525 78.6992 260.965 78.6992 261.471C78.6992 262.277 78.3848 262.924 77.7559 263.412C77.127 263.895 76.2861 264.137 75.2334 264.137C74.5498 264.137 73.9118 264.007 73.3193 263.747C72.7269 263.483 72.2689 263.123 71.9453 262.667C71.6263 262.211 71.4668 261.694 71.4668 261.115H72.7861C72.7861 261.717 73.0072 262.193 73.4492 262.544C73.8958 262.89 74.4906 263.063 75.2334 263.063C75.9261 263.063 76.457 262.922 76.8262 262.64C77.1953 262.357 77.3799 261.972 77.3799 261.484C77.3799 260.997 77.209 260.621 76.8672 260.356C76.5254 260.088 75.9056 259.823 75.0078 259.563ZM86.4375 260.384C86.4375 261.509 86.18 262.416 85.665 263.104C85.1501 263.793 84.4528 264.137 83.5732 264.137C82.6755 264.137 81.9691 263.852 81.4541 263.282V266.844H80.1895V256.604H81.3447L81.4062 257.424C81.9212 256.786 82.6367 256.467 83.5527 256.467C84.4414 256.467 85.1432 256.802 85.6582 257.472C86.1777 258.142 86.4375 259.074 86.4375 260.268V260.384ZM85.1729 260.24C85.1729 259.406 84.9951 258.748 84.6396 258.265C84.2842 257.782 83.7965 257.54 83.1768 257.54C82.4111 257.54 81.8369 257.88 81.4541 258.559V262.093C81.8324 262.767 82.4111 263.104 83.1904 263.104C83.7965 263.104 84.2773 262.865 84.6328 262.387C84.9928 261.904 85.1729 261.188 85.1729 260.24ZM91.626 257.738C91.4346 257.706 91.2272 257.69 91.0039 257.69C90.1745 257.69 89.6117 258.044 89.3154 258.75V264H88.0508V256.604H89.2812L89.3018 257.458C89.7165 256.797 90.3044 256.467 91.0654 256.467C91.3115 256.467 91.4984 256.499 91.626 256.562V257.738ZM94.1689 264H92.9043V256.604H94.1689V264ZM92.8018 254.642C92.8018 254.437 92.8633 254.263 92.9863 254.122C93.1139 253.981 93.3008 253.91 93.5469 253.91C93.793 253.91 93.9798 253.981 94.1074 254.122C94.235 254.263 94.2988 254.437 94.2988 254.642C94.2988 254.847 94.235 255.018 94.1074 255.154C93.9798 255.291 93.793 255.359 93.5469 255.359C93.3008 255.359 93.1139 255.291 92.9863 255.154C92.8633 255.018 92.8018 254.847 92.8018 254.642ZM97.3955 256.604L97.4365 257.533C98.0016 256.822 98.7399 256.467 99.6514 256.467C101.215 256.467 102.003 257.349 102.017 259.112V264H100.752V259.105C100.747 258.572 100.624 258.178 100.383 257.923C100.146 257.668 99.7744 257.54 99.2686 257.54C98.8584 257.54 98.4984 257.649 98.1885 257.868C97.8786 258.087 97.637 258.374 97.4639 258.729V264H96.1992V256.604H97.3955ZM103.623 260.24C103.623 259.087 103.89 258.171 104.423 257.492C104.956 256.809 105.662 256.467 106.542 256.467C107.444 256.467 108.148 256.786 108.654 257.424L108.716 256.604H109.871V263.822C109.871 264.779 109.586 265.534 109.017 266.085C108.451 266.636 107.69 266.912 106.733 266.912C106.2 266.912 105.678 266.798 105.168 266.57C104.658 266.342 104.268 266.03 103.999 265.634L104.655 264.875C105.198 265.545 105.861 265.88 106.645 265.88C107.26 265.88 107.738 265.707 108.08 265.36C108.426 265.014 108.6 264.526 108.6 263.897V263.262C108.094 263.845 107.403 264.137 106.528 264.137C105.662 264.137 104.961 263.788 104.423 263.091C103.89 262.394 103.623 261.443 103.623 260.24ZM104.895 260.384C104.895 261.218 105.065 261.874 105.407 262.353C105.749 262.826 106.228 263.063 106.843 263.063C107.64 263.063 108.226 262.701 108.6 261.977V258.6C108.212 257.893 107.631 257.54 106.856 257.54C106.241 257.54 105.76 257.779 105.414 258.258C105.068 258.736 104.895 259.445 104.895 260.384ZM120.945 259.604H116.769V264H115.456V254.047H121.622V255.127H116.769V258.531H120.945V259.604ZM126.394 257.738C126.202 257.706 125.995 257.69 125.771 257.69C124.942 257.69 124.379 258.044 124.083 258.75V264H122.818V256.604H124.049L124.069 257.458C124.484 256.797 125.072 256.467 125.833 256.467C126.079 256.467 126.266 256.499 126.394 256.562V257.738ZM131.855 264C131.783 263.854 131.723 263.594 131.678 263.221C131.09 263.831 130.388 264.137 129.572 264.137C128.843 264.137 128.244 263.932 127.774 263.521C127.31 263.107 127.077 262.583 127.077 261.949C127.077 261.179 127.369 260.582 127.952 260.158C128.54 259.73 129.365 259.516 130.427 259.516H131.657V258.935C131.657 258.493 131.525 258.142 131.261 257.882C130.996 257.618 130.607 257.485 130.092 257.485C129.641 257.485 129.262 257.599 128.957 257.827C128.652 258.055 128.499 258.331 128.499 258.654H127.228C127.228 258.285 127.357 257.93 127.617 257.588C127.882 257.242 128.237 256.968 128.684 256.768C129.135 256.567 129.629 256.467 130.167 256.467C131.019 256.467 131.687 256.681 132.17 257.109C132.653 257.533 132.904 258.119 132.922 258.866V262.271C132.922 262.95 133.008 263.49 133.182 263.891V264H131.855ZM129.757 263.036C130.153 263.036 130.529 262.934 130.885 262.729C131.24 262.523 131.498 262.257 131.657 261.929V260.411H130.666C129.117 260.411 128.342 260.865 128.342 261.771C128.342 262.168 128.474 262.478 128.738 262.701C129.003 262.924 129.342 263.036 129.757 263.036ZM136.094 256.604L136.128 257.424C136.67 256.786 137.402 256.467 138.322 256.467C139.357 256.467 140.061 256.863 140.435 257.656C140.681 257.301 141 257.014 141.392 256.795C141.788 256.576 142.255 256.467 142.793 256.467C144.415 256.467 145.24 257.326 145.268 259.044V264H144.003V259.119C144.003 258.59 143.882 258.196 143.641 257.937C143.399 257.672 142.993 257.54 142.424 257.54C141.954 257.54 141.565 257.681 141.255 257.964C140.945 258.242 140.765 258.618 140.715 259.092V264H139.443V259.153C139.443 258.078 138.917 257.54 137.864 257.54C137.035 257.54 136.467 257.893 136.162 258.6V264H134.897V256.604H136.094ZM150.251 264.137C149.248 264.137 148.433 263.809 147.804 263.152C147.175 262.492 146.86 261.61 146.86 260.507V260.274C146.86 259.541 146.999 258.887 147.277 258.312C147.56 257.734 147.952 257.283 148.453 256.959C148.959 256.631 149.506 256.467 150.094 256.467C151.055 256.467 151.803 256.784 152.336 257.417C152.869 258.05 153.136 258.957 153.136 260.138V260.664H148.125C148.143 261.393 148.355 261.983 148.761 262.435C149.171 262.881 149.69 263.104 150.319 263.104C150.766 263.104 151.144 263.013 151.454 262.831C151.764 262.649 152.035 262.407 152.268 262.106L153.04 262.708C152.42 263.66 151.491 264.137 150.251 264.137ZM150.094 257.506C149.583 257.506 149.155 257.693 148.809 258.066C148.462 258.436 148.248 258.955 148.166 259.625H151.871V259.529C151.835 258.887 151.661 258.39 151.352 258.039C151.042 257.684 150.622 257.506 150.094 257.506ZM161.154 262.257L162.576 256.604H163.841L161.688 264H160.662L158.864 258.395L157.114 264H156.089L153.942 256.604H155.2L156.656 262.141L158.379 256.604H159.397L161.154 262.257ZM164.798 260.233C164.798 259.509 164.939 258.857 165.222 258.278C165.509 257.7 165.905 257.253 166.411 256.938C166.922 256.624 167.503 256.467 168.154 256.467C169.161 256.467 169.975 256.815 170.595 257.513C171.219 258.21 171.531 259.137 171.531 260.295V260.384C171.531 261.104 171.392 261.751 171.114 262.325C170.841 262.895 170.447 263.339 169.932 263.658C169.421 263.977 168.833 264.137 168.168 264.137C167.165 264.137 166.352 263.788 165.728 263.091C165.108 262.394 164.798 261.471 164.798 260.322V260.233ZM166.069 260.384C166.069 261.204 166.258 261.863 166.637 262.359C167.02 262.856 167.53 263.104 168.168 263.104C168.811 263.104 169.321 262.854 169.699 262.353C170.077 261.847 170.267 261.14 170.267 260.233C170.267 259.422 170.073 258.766 169.686 258.265C169.303 257.759 168.792 257.506 168.154 257.506C167.53 257.506 167.026 257.754 166.644 258.251C166.261 258.748 166.069 259.459 166.069 260.384ZM176.692 257.738C176.501 257.706 176.294 257.69 176.07 257.69C175.241 257.69 174.678 258.044 174.382 258.75V264H173.117V256.604H174.348L174.368 257.458C174.783 256.797 175.371 256.467 176.132 256.467C176.378 256.467 176.565 256.499 176.692 256.562V257.738ZM179.926 260.575L179.133 261.402V264H177.868V253.5H179.133V259.851L179.81 259.037L182.113 256.604H183.651L180.773 259.693L183.986 264H182.503L179.926 260.575Z" fill="black"/>
<path d="M355.45 190.288H352.114V189.256H355.45V190.288ZM364.009 189.974H361.671V194H360.352V184.047H363.646C364.768 184.047 365.629 184.302 366.23 184.812C366.837 185.323 367.14 186.066 367.14 187.041C367.14 187.661 366.971 188.201 366.634 188.661C366.301 189.121 365.836 189.465 365.239 189.693L367.577 193.918V194H366.169L364.009 189.974ZM361.671 188.9H363.688C364.339 188.9 364.856 188.732 365.239 188.395C365.627 188.057 365.82 187.606 365.82 187.041C365.82 186.426 365.636 185.954 365.267 185.626C364.902 185.298 364.373 185.132 363.681 185.127H361.671V188.9ZM373.354 194C373.281 193.854 373.221 193.594 373.176 193.221C372.588 193.831 371.886 194.137 371.07 194.137C370.341 194.137 369.742 193.932 369.272 193.521C368.808 193.107 368.575 192.583 368.575 191.949C368.575 191.179 368.867 190.582 369.45 190.158C370.038 189.73 370.863 189.516 371.925 189.516H373.155V188.935C373.155 188.493 373.023 188.142 372.759 187.882C372.494 187.618 372.105 187.485 371.59 187.485C371.139 187.485 370.76 187.599 370.455 187.827C370.15 188.055 369.997 188.331 369.997 188.654H368.726C368.726 188.285 368.855 187.93 369.115 187.588C369.38 187.242 369.735 186.968 370.182 186.768C370.633 186.567 371.127 186.467 371.665 186.467C372.517 186.467 373.185 186.681 373.668 187.109C374.151 187.533 374.402 188.119 374.42 188.866V192.271C374.42 192.95 374.507 193.49 374.68 193.891V194H373.354ZM371.255 193.036C371.651 193.036 372.027 192.934 372.383 192.729C372.738 192.523 372.996 192.257 373.155 191.929V190.411H372.164C370.615 190.411 369.84 190.865 369.84 191.771C369.84 192.168 369.972 192.478 370.236 192.701C370.501 192.924 370.84 193.036 371.255 193.036ZM382.664 190.384C382.664 191.514 382.404 192.423 381.885 193.111C381.365 193.795 380.668 194.137 379.793 194.137C378.859 194.137 378.136 193.806 377.626 193.146L377.564 194H376.402V183.5H377.667V187.417C378.177 186.784 378.882 186.467 379.779 186.467C380.677 186.467 381.381 186.806 381.892 187.485C382.407 188.164 382.664 189.094 382.664 190.274V190.384ZM381.399 190.24C381.399 189.379 381.233 188.714 380.9 188.244C380.568 187.775 380.089 187.54 379.465 187.54C378.631 187.54 378.032 187.927 377.667 188.702V191.901C378.054 192.676 378.658 193.063 379.479 193.063C380.085 193.063 380.556 192.829 380.894 192.359C381.231 191.89 381.399 191.184 381.399 190.24ZM390.525 190.384C390.525 191.514 390.266 192.423 389.746 193.111C389.227 193.795 388.529 194.137 387.654 194.137C386.72 194.137 385.998 193.806 385.487 193.146L385.426 194H384.264V183.5H385.528V187.417C386.039 186.784 386.743 186.467 387.641 186.467C388.538 186.467 389.243 186.806 389.753 187.485C390.268 188.164 390.525 189.094 390.525 190.274V190.384ZM389.261 190.24C389.261 189.379 389.094 188.714 388.762 188.244C388.429 187.775 387.951 187.54 387.326 187.54C386.492 187.54 385.893 187.927 385.528 188.702V191.901C385.916 192.676 386.52 193.063 387.34 193.063C387.946 193.063 388.418 192.829 388.755 192.359C389.092 191.89 389.261 191.184 389.261 190.24ZM393.499 194H392.234V186.604H393.499V194ZM392.132 184.642C392.132 184.437 392.193 184.263 392.316 184.122C392.444 183.981 392.631 183.91 392.877 183.91C393.123 183.91 393.31 183.981 393.438 184.122C393.565 184.263 393.629 184.437 393.629 184.642C393.629 184.847 393.565 185.018 393.438 185.154C393.31 185.291 393.123 185.359 392.877 185.359C392.631 185.359 392.444 185.291 392.316 185.154C392.193 185.018 392.132 184.847 392.132 184.642ZM397.245 184.812V186.604H398.626V187.581H397.245V192.168C397.245 192.464 397.307 192.688 397.43 192.838C397.553 192.984 397.762 193.057 398.059 193.057C398.204 193.057 398.405 193.029 398.66 192.975V194C398.327 194.091 398.004 194.137 397.689 194.137C397.124 194.137 396.698 193.966 396.411 193.624C396.124 193.282 395.98 192.797 395.98 192.168V187.581H394.634V186.604H395.98V184.812H397.245ZM402.003 184.047L405.257 192.168L408.511 184.047H410.213V194H408.9V190.124L409.023 185.94L405.756 194H404.751L401.49 185.961L401.62 190.124V194H400.308V184.047H402.003ZM420.132 189.345C420.132 190.306 419.979 191.136 419.674 191.833C419.368 192.526 418.94 193.068 418.389 193.46L420.166 194.854L419.271 195.682L417.172 194.014C416.844 194.096 416.497 194.137 416.133 194.137C415.349 194.137 414.654 193.945 414.048 193.562C413.442 193.175 412.97 192.626 412.633 191.915C412.3 191.2 412.129 190.372 412.12 189.434V188.716C412.12 187.759 412.286 186.913 412.619 186.18C412.952 185.446 413.421 184.885 414.027 184.498C414.638 184.106 415.335 183.91 416.119 183.91C416.921 183.91 417.625 184.104 418.231 184.491C418.842 184.879 419.312 185.437 419.64 186.166C419.968 186.891 420.132 187.738 420.132 188.709V189.345ZM418.819 188.702C418.819 187.531 418.585 186.629 418.115 185.995C417.65 185.357 416.985 185.038 416.119 185.038C415.294 185.038 414.643 185.355 414.164 185.988C413.69 186.617 413.446 187.492 413.433 188.613V189.345C413.433 190.484 413.67 191.382 414.144 192.038C414.622 192.694 415.285 193.022 416.133 193.022C416.98 193.022 417.637 192.715 418.102 192.1C418.566 191.48 418.806 190.593 418.819 189.44V188.702Z" fill="black"/>
<path d="M321.805 223H320.485L315.475 215.33V223H314.155V213.047H315.475L320.499 220.751V213.047H321.805V223ZM323.603 219.233C323.603 218.509 323.744 217.857 324.026 217.278C324.313 216.7 324.71 216.253 325.216 215.938C325.726 215.624 326.307 215.467 326.959 215.467C327.966 215.467 328.78 215.815 329.399 216.513C330.024 217.21 330.336 218.137 330.336 219.295V219.384C330.336 220.104 330.197 220.751 329.919 221.325C329.646 221.895 329.251 222.339 328.736 222.658C328.226 222.977 327.638 223.137 326.973 223.137C325.97 223.137 325.157 222.788 324.532 222.091C323.912 221.394 323.603 220.471 323.603 219.322V219.233ZM324.874 219.384C324.874 220.204 325.063 220.863 325.441 221.359C325.824 221.856 326.335 222.104 326.973 222.104C327.615 222.104 328.126 221.854 328.504 221.353C328.882 220.847 329.071 220.14 329.071 219.233C329.071 218.422 328.878 217.766 328.49 217.265C328.107 216.759 327.597 216.506 326.959 216.506C326.335 216.506 325.831 216.754 325.448 217.251C325.065 217.748 324.874 218.459 324.874 219.384ZM334.253 221.284L336.085 215.604H337.377L334.725 223H333.761L331.081 215.604H332.373L334.253 221.284ZM338.149 219.233C338.149 218.509 338.291 217.857 338.573 217.278C338.86 216.7 339.257 216.253 339.763 215.938C340.273 215.624 340.854 215.467 341.506 215.467C342.513 215.467 343.326 215.815 343.946 216.513C344.571 217.21 344.883 218.137 344.883 219.295V219.384C344.883 220.104 344.744 220.751 344.466 221.325C344.192 221.895 343.798 222.339 343.283 222.658C342.773 222.977 342.185 223.137 341.52 223.137C340.517 223.137 339.703 222.788 339.079 222.091C338.459 221.394 338.149 220.471 338.149 219.322V219.233ZM339.421 219.384C339.421 220.204 339.61 220.863 339.988 221.359C340.371 221.856 340.882 222.104 341.52 222.104C342.162 222.104 342.673 221.854 343.051 221.353C343.429 220.847 343.618 220.14 343.618 219.233C343.618 218.422 343.424 217.766 343.037 217.265C342.654 216.759 342.144 216.506 341.506 216.506C340.882 216.506 340.378 216.754 339.995 217.251C339.612 217.748 339.421 218.459 339.421 219.384ZM350.775 221.038C350.775 220.696 350.646 220.432 350.386 220.245C350.131 220.054 349.682 219.89 349.039 219.753C348.401 219.616 347.893 219.452 347.515 219.261C347.141 219.069 346.863 218.841 346.681 218.577C346.503 218.313 346.414 217.998 346.414 217.634C346.414 217.028 346.669 216.515 347.18 216.096C347.695 215.676 348.351 215.467 349.148 215.467C349.987 215.467 350.666 215.683 351.186 216.116C351.71 216.549 351.972 217.103 351.972 217.777H350.7C350.7 217.431 350.552 217.132 350.256 216.882C349.964 216.631 349.595 216.506 349.148 216.506C348.688 216.506 348.328 216.606 348.068 216.807C347.809 217.007 347.679 217.269 347.679 217.593C347.679 217.898 347.799 218.128 348.041 218.283C348.283 218.438 348.718 218.586 349.347 218.728C349.98 218.869 350.493 219.037 350.885 219.233C351.277 219.429 351.566 219.666 351.753 219.944C351.944 220.218 352.04 220.553 352.04 220.949C352.04 221.61 351.776 222.141 351.247 222.542C350.718 222.938 350.033 223.137 349.189 223.137C348.597 223.137 348.073 223.032 347.617 222.822C347.161 222.613 346.804 222.321 346.544 221.947C346.289 221.569 346.161 221.161 346.161 220.724H347.426C347.449 221.147 347.617 221.485 347.932 221.735C348.251 221.981 348.67 222.104 349.189 222.104C349.668 222.104 350.051 222.009 350.338 221.817C350.63 221.621 350.775 221.362 350.775 221.038ZM361.727 222.269C361.234 222.847 360.512 223.137 359.56 223.137C358.771 223.137 358.17 222.909 357.755 222.453C357.345 221.993 357.137 221.314 357.133 220.416V215.604H358.397V220.382C358.397 221.503 358.853 222.063 359.765 222.063C360.731 222.063 361.373 221.703 361.692 220.983V215.604H362.957V223H361.754L361.727 222.269ZM369.191 221.038C369.191 220.696 369.062 220.432 368.802 220.245C368.547 220.054 368.098 219.89 367.455 219.753C366.817 219.616 366.309 219.452 365.931 219.261C365.557 219.069 365.279 218.841 365.097 218.577C364.919 218.313 364.83 217.998 364.83 217.634C364.83 217.028 365.085 216.515 365.596 216.096C366.111 215.676 366.767 215.467 367.564 215.467C368.403 215.467 369.082 215.683 369.602 216.116C370.126 216.549 370.388 217.103 370.388 217.777H369.116C369.116 217.431 368.968 217.132 368.672 216.882C368.38 216.631 368.011 216.506 367.564 216.506C367.104 216.506 366.744 216.606 366.484 216.807C366.225 217.007 366.095 217.269 366.095 217.593C366.095 217.898 366.215 218.128 366.457 218.283C366.699 218.438 367.134 218.586 367.763 218.728C368.396 218.869 368.909 219.037 369.301 219.233C369.693 219.429 369.982 219.666 370.169 219.944C370.36 220.218 370.456 220.553 370.456 220.949C370.456 221.61 370.192 222.141 369.663 222.542C369.134 222.938 368.449 223.137 367.605 223.137C367.013 223.137 366.489 223.032 366.033 222.822C365.577 222.613 365.22 222.321 364.96 221.947C364.705 221.569 364.577 221.161 364.577 220.724H365.842C365.865 221.147 366.033 221.485 366.348 221.735C366.667 221.981 367.086 222.104 367.605 222.104C368.084 222.104 368.467 222.009 368.754 221.817C369.046 221.621 369.191 221.362 369.191 221.038ZM376.67 222.269C376.178 222.847 375.455 223.137 374.503 223.137C373.715 223.137 373.113 222.909 372.698 222.453C372.288 221.993 372.081 221.314 372.076 220.416V215.604H373.341V220.382C373.341 221.503 373.797 222.063 374.708 222.063C375.674 222.063 376.317 221.703 376.636 220.983V215.604H377.9V223H376.697L376.67 222.269ZM384.395 223C384.322 222.854 384.262 222.594 384.217 222.221C383.629 222.831 382.927 223.137 382.111 223.137C381.382 223.137 380.783 222.932 380.313 222.521C379.849 222.107 379.616 221.583 379.616 220.949C379.616 220.179 379.908 219.582 380.491 219.158C381.079 218.73 381.904 218.516 382.966 218.516H384.196V217.935C384.196 217.493 384.064 217.142 383.8 216.882C383.535 216.618 383.146 216.485 382.631 216.485C382.18 216.485 381.801 216.599 381.496 216.827C381.191 217.055 381.038 217.331 381.038 217.654H379.767C379.767 217.285 379.896 216.93 380.156 216.588C380.421 216.242 380.776 215.968 381.223 215.768C381.674 215.567 382.168 215.467 382.706 215.467C383.558 215.467 384.226 215.681 384.709 216.109C385.192 216.533 385.443 217.119 385.461 217.866V221.271C385.461 221.95 385.548 222.49 385.721 222.891V223H384.395ZM382.296 222.036C382.692 222.036 383.068 221.934 383.424 221.729C383.779 221.523 384.037 221.257 384.196 220.929V219.411H383.205C381.656 219.411 380.881 219.865 380.881 220.771C380.881 221.168 381.013 221.478 381.277 221.701C381.542 221.924 381.881 222.036 382.296 222.036ZM383.465 212.5H384.996L383.164 214.51H382.146L383.465 212.5ZM391.019 216.738C390.827 216.706 390.62 216.69 390.396 216.69C389.567 216.69 389.004 217.044 388.708 217.75V223H387.443V215.604H388.674L388.694 216.458C389.109 215.797 389.697 215.467 390.458 215.467C390.704 215.467 390.891 215.499 391.019 215.562V216.738ZM393.562 223H392.297V215.604H393.562V223ZM392.194 213.642C392.194 213.437 392.256 213.263 392.379 213.122C392.507 212.981 392.693 212.91 392.939 212.91C393.186 212.91 393.372 212.981 393.5 213.122C393.628 213.263 393.691 213.437 393.691 213.642C393.691 213.847 393.628 214.018 393.5 214.154C393.372 214.291 393.186 214.359 392.939 214.359C392.693 214.359 392.507 214.291 392.379 214.154C392.256 214.018 392.194 213.847 392.194 213.642ZM395.257 219.233C395.257 218.509 395.398 217.857 395.681 217.278C395.968 216.7 396.364 216.253 396.87 215.938C397.381 215.624 397.962 215.467 398.613 215.467C399.62 215.467 400.434 215.815 401.054 216.513C401.678 217.21 401.99 218.137 401.99 219.295V219.384C401.99 220.104 401.851 220.751 401.573 221.325C401.3 221.895 400.906 222.339 400.391 222.658C399.88 222.977 399.292 223.137 398.627 223.137C397.624 223.137 396.811 222.788 396.187 222.091C395.567 221.394 395.257 220.471 395.257 219.322V219.233ZM396.528 219.384C396.528 220.204 396.717 220.863 397.096 221.359C397.479 221.856 397.989 222.104 398.627 222.104C399.27 222.104 399.78 221.854 400.158 221.353C400.536 220.847 400.726 220.14 400.726 219.233C400.726 218.422 400.532 217.766 400.145 217.265C399.762 216.759 399.251 216.506 398.613 216.506C397.989 216.506 397.485 216.754 397.103 217.251C396.72 217.748 396.528 218.459 396.528 219.384ZM407.883 221.038C407.883 220.696 407.753 220.432 407.493 220.245C407.238 220.054 406.789 219.89 406.146 219.753C405.508 219.616 405 219.452 404.622 219.261C404.248 219.069 403.97 218.841 403.788 218.577C403.61 218.313 403.521 217.998 403.521 217.634C403.521 217.028 403.777 216.515 404.287 216.096C404.802 215.676 405.458 215.467 406.256 215.467C407.094 215.467 407.773 215.683 408.293 216.116C408.817 216.549 409.079 217.103 409.079 217.777H407.808C407.808 217.431 407.66 217.132 407.363 216.882C407.072 216.631 406.702 216.506 406.256 216.506C405.796 216.506 405.436 216.606 405.176 216.807C404.916 217.007 404.786 217.269 404.786 217.593C404.786 217.898 404.907 218.128 405.148 218.283C405.39 218.438 405.825 218.586 406.454 218.728C407.088 218.869 407.6 219.037 407.992 219.233C408.384 219.429 408.674 219.666 408.86 219.944C409.052 220.218 409.147 220.553 409.147 220.949C409.147 221.61 408.883 222.141 408.354 222.542C407.826 222.938 407.14 223.137 406.297 223.137C405.704 223.137 405.18 223.032 404.725 222.822C404.269 222.613 403.911 222.321 403.651 221.947C403.396 221.569 403.269 221.161 403.269 220.724H404.533C404.556 221.147 404.725 221.485 405.039 221.735C405.358 221.981 405.777 222.104 406.297 222.104C406.775 222.104 407.158 222.009 407.445 221.817C407.737 221.621 407.883 221.362 407.883 221.038Z" fill="#939393"/>
<path d="M317.551 236.53C317.234 236.902 316.77 237.088 316.158 237.088C315.651 237.088 315.264 236.941 314.998 236.648C314.734 236.353 314.601 235.916 314.598 235.339V232.245H315.411V235.317C315.411 236.038 315.704 236.398 316.29 236.398C316.911 236.398 317.324 236.167 317.529 235.704V232.245H318.342V237H317.568L317.551 236.53ZM322.35 235.739C322.35 235.519 322.266 235.349 322.099 235.229C321.935 235.106 321.646 235 321.233 234.913C320.823 234.825 320.497 234.719 320.253 234.596C320.013 234.473 319.834 234.327 319.717 234.157C319.603 233.987 319.546 233.785 319.546 233.55C319.546 233.161 319.71 232.831 320.038 232.562C320.369 232.292 320.791 232.157 321.304 232.157C321.843 232.157 322.279 232.296 322.613 232.575C322.95 232.853 323.119 233.209 323.119 233.643H322.301C322.301 233.42 322.206 233.228 322.016 233.067C321.828 232.906 321.591 232.825 321.304 232.825C321.008 232.825 320.776 232.89 320.609 233.019C320.442 233.147 320.359 233.316 320.359 233.524C320.359 233.72 320.437 233.868 320.592 233.968C320.747 234.067 321.027 234.163 321.431 234.253C321.838 234.344 322.168 234.453 322.42 234.579C322.672 234.705 322.858 234.857 322.978 235.036C323.101 235.211 323.163 235.427 323.163 235.682C323.163 236.106 322.993 236.448 322.653 236.706C322.313 236.96 321.872 237.088 321.33 237.088C320.949 237.088 320.612 237.021 320.319 236.886C320.026 236.751 319.796 236.563 319.629 236.323C319.465 236.08 319.383 235.818 319.383 235.537H320.196C320.211 235.809 320.319 236.026 320.521 236.187C320.727 236.345 320.996 236.424 321.33 236.424C321.638 236.424 321.884 236.363 322.068 236.24C322.256 236.114 322.35 235.947 322.35 235.739ZM326.195 237.088C325.55 237.088 325.026 236.877 324.622 236.455C324.217 236.03 324.015 235.463 324.015 234.754V234.605C324.015 234.133 324.104 233.713 324.283 233.344C324.465 232.972 324.717 232.682 325.039 232.474C325.364 232.263 325.716 232.157 326.094 232.157C326.712 232.157 327.192 232.361 327.535 232.768C327.878 233.175 328.049 233.758 328.049 234.517V234.855H324.828C324.84 235.324 324.976 235.704 325.237 235.994C325.5 236.281 325.834 236.424 326.239 236.424C326.526 236.424 326.769 236.366 326.968 236.249C327.167 236.131 327.342 235.976 327.491 235.783L327.988 236.169C327.589 236.782 326.992 237.088 326.195 237.088ZM326.094 232.825C325.766 232.825 325.49 232.945 325.268 233.186C325.045 233.423 324.907 233.757 324.854 234.188H327.236V234.126C327.213 233.713 327.102 233.394 326.902 233.168C326.703 232.939 326.434 232.825 326.094 232.825ZM331.292 232.975C331.169 232.954 331.036 232.944 330.893 232.944C330.359 232.944 329.998 233.171 329.807 233.625V237H328.994V232.245H329.785L329.798 232.794C330.065 232.37 330.443 232.157 330.932 232.157C331.09 232.157 331.21 232.178 331.292 232.219V232.975ZM334.632 237H333.815V231.582L332.176 232.184V231.445L334.505 230.571H334.632V237ZM317.551 247.53C317.234 247.902 316.77 248.088 316.158 248.088C315.651 248.088 315.264 247.941 314.998 247.648C314.734 247.353 314.601 246.916 314.598 246.339V243.245H315.411V246.317C315.411 247.038 315.704 247.398 316.29 247.398C316.911 247.398 317.324 247.167 317.529 246.704V243.245H318.342V248H317.568L317.551 247.53ZM322.35 246.739C322.35 246.519 322.266 246.349 322.099 246.229C321.935 246.106 321.646 246 321.233 245.913C320.823 245.825 320.497 245.719 320.253 245.596C320.013 245.473 319.834 245.327 319.717 245.157C319.603 244.987 319.546 244.785 319.546 244.55C319.546 244.161 319.71 243.831 320.038 243.562C320.369 243.292 320.791 243.157 321.304 243.157C321.843 243.157 322.279 243.296 322.613 243.575C322.95 243.853 323.119 244.209 323.119 244.643H322.301C322.301 244.42 322.206 244.228 322.016 244.067C321.828 243.906 321.591 243.825 321.304 243.825C321.008 243.825 320.776 243.89 320.609 244.019C320.442 244.147 320.359 244.316 320.359 244.524C320.359 244.72 320.437 244.868 320.592 244.968C320.747 245.067 321.027 245.163 321.431 245.253C321.838 245.344 322.168 245.453 322.42 245.579C322.672 245.705 322.858 245.857 322.978 246.036C323.101 246.211 323.163 246.427 323.163 246.682C323.163 247.106 322.993 247.448 322.653 247.706C322.313 247.96 321.872 248.088 321.33 248.088C320.949 248.088 320.612 248.021 320.319 247.886C320.026 247.751 319.796 247.563 319.629 247.323C319.465 247.08 319.383 246.818 319.383 246.537H320.196C320.211 246.809 320.319 247.026 320.521 247.187C320.727 247.345 320.996 247.424 321.33 247.424C321.638 247.424 321.884 247.363 322.068 247.24C322.256 247.114 322.35 246.947 322.35 246.739ZM326.195 248.088C325.55 248.088 325.026 247.877 324.622 247.455C324.217 247.03 324.015 246.463 324.015 245.754V245.605C324.015 245.133 324.104 244.713 324.283 244.344C324.465 243.972 324.717 243.682 325.039 243.474C325.364 243.263 325.716 243.157 326.094 243.157C326.712 243.157 327.192 243.361 327.535 243.768C327.878 244.175 328.049 244.758 328.049 245.517V245.855H324.828C324.84 246.324 324.976 246.704 325.237 246.994C325.5 247.281 325.834 247.424 326.239 247.424C326.526 247.424 326.769 247.366 326.968 247.249C327.167 247.131 327.342 246.976 327.491 246.783L327.988 247.169C327.589 247.782 326.992 248.088 326.195 248.088ZM326.094 243.825C325.766 243.825 325.49 243.945 325.268 244.186C325.045 244.423 324.907 244.757 324.854 245.188H327.236V245.126C327.213 244.713 327.102 244.394 326.902 244.168C326.703 243.939 326.434 243.825 326.094 243.825ZM331.292 243.975C331.169 243.954 331.036 243.944 330.893 243.944C330.359 243.944 329.998 244.171 329.807 244.625V248H328.994V243.245H329.785L329.798 243.794C330.065 243.37 330.443 243.157 330.932 243.157C331.09 243.157 331.21 243.178 331.292 243.219V243.975ZM336.153 248H331.96V247.416L334.175 244.955C334.503 244.583 334.729 244.281 334.852 244.049C334.978 243.815 335.041 243.573 335.041 243.324C335.041 242.99 334.94 242.716 334.738 242.502C334.536 242.289 334.266 242.182 333.929 242.182C333.525 242.182 333.21 242.297 332.984 242.529C332.762 242.757 332.65 243.077 332.65 243.487H331.837C331.837 242.898 332.026 242.422 332.404 242.059C332.785 241.695 333.293 241.514 333.929 241.514C334.524 241.514 334.994 241.67 335.34 241.984C335.686 242.294 335.858 242.709 335.858 243.228C335.858 243.857 335.457 244.607 334.654 245.478L332.94 247.336H336.153V248ZM317.551 258.53C317.234 258.902 316.77 259.088 316.158 259.088C315.651 259.088 315.264 258.941 314.998 258.648C314.734 258.353 314.601 257.916 314.598 257.339V254.245H315.411V257.317C315.411 258.038 315.704 258.398 316.29 258.398C316.911 258.398 317.324 258.167 317.529 257.704V254.245H318.342V259H317.568L317.551 258.53ZM322.35 257.739C322.35 257.519 322.266 257.349 322.099 257.229C321.935 257.106 321.646 257 321.233 256.913C320.823 256.825 320.497 256.719 320.253 256.596C320.013 256.473 319.834 256.327 319.717 256.157C319.603 255.987 319.546 255.785 319.546 255.55C319.546 255.161 319.71 254.831 320.038 254.562C320.369 254.292 320.791 254.157 321.304 254.157C321.843 254.157 322.279 254.296 322.613 254.575C322.95 254.853 323.119 255.209 323.119 255.643H322.301C322.301 255.42 322.206 255.228 322.016 255.067C321.828 254.906 321.591 254.825 321.304 254.825C321.008 254.825 320.776 254.89 320.609 255.019C320.442 255.147 320.359 255.316 320.359 255.524C320.359 255.72 320.437 255.868 320.592 255.968C320.747 256.067 321.027 256.163 321.431 256.253C321.838 256.344 322.168 256.453 322.42 256.579C322.672 256.705 322.858 256.857 322.978 257.036C323.101 257.211 323.163 257.427 323.163 257.682C323.163 258.106 322.993 258.448 322.653 258.706C322.313 258.96 321.872 259.088 321.33 259.088C320.949 259.088 320.612 259.021 320.319 258.886C320.026 258.751 319.796 258.563 319.629 258.323C319.465 258.08 319.383 257.818 319.383 257.537H320.196C320.211 257.809 320.319 258.026 320.521 258.187C320.727 258.345 320.996 258.424 321.33 258.424C321.638 258.424 321.884 258.363 322.068 258.24C322.256 258.114 322.35 257.947 322.35 257.739ZM326.195 259.088C325.55 259.088 325.026 258.877 324.622 258.455C324.217 258.03 324.015 257.463 324.015 256.754V256.605C324.015 256.133 324.104 255.713 324.283 255.344C324.465 254.972 324.717 254.682 325.039 254.474C325.364 254.263 325.716 254.157 326.094 254.157C326.712 254.157 327.192 254.361 327.535 254.768C327.878 255.175 328.049 255.758 328.049 256.517V256.855H324.828C324.84 257.324 324.976 257.704 325.237 257.994C325.5 258.281 325.834 258.424 326.239 258.424C326.526 258.424 326.769 258.366 326.968 258.249C327.167 258.131 327.342 257.976 327.491 257.783L327.988 258.169C327.589 258.782 326.992 259.088 326.195 259.088ZM326.094 254.825C325.766 254.825 325.49 254.945 325.268 255.186C325.045 255.423 324.907 255.757 324.854 256.188H327.236V256.126C327.213 255.713 327.102 255.394 326.902 255.168C326.703 254.939 326.434 254.825 326.094 254.825ZM331.292 254.975C331.169 254.954 331.036 254.944 330.893 254.944C330.359 254.944 329.998 255.171 329.807 255.625V259H328.994V254.245H329.785L329.798 254.794C330.065 254.37 330.443 254.157 330.932 254.157C331.09 254.157 331.21 254.178 331.292 254.219V254.975ZM333.143 255.405H333.753C334.137 255.399 334.439 255.298 334.659 255.102C334.878 254.906 334.988 254.641 334.988 254.307C334.988 253.557 334.615 253.182 333.868 253.182C333.516 253.182 333.235 253.283 333.024 253.485C332.816 253.684 332.712 253.949 332.712 254.28H331.899C331.899 253.773 332.083 253.353 332.453 253.019C332.825 252.682 333.296 252.514 333.868 252.514C334.471 252.514 334.944 252.673 335.287 252.993C335.63 253.312 335.801 253.756 335.801 254.324C335.801 254.603 335.71 254.872 335.529 255.133C335.35 255.394 335.105 255.588 334.795 255.717C335.146 255.829 335.417 256.013 335.608 256.271C335.801 256.529 335.898 256.844 335.898 257.216C335.898 257.79 335.71 258.246 335.335 258.583C334.96 258.919 334.473 259.088 333.872 259.088C333.271 259.088 332.782 258.925 332.404 258.6C332.029 258.275 331.842 257.846 331.842 257.312H332.659C332.659 257.649 332.769 257.919 332.989 258.121C333.208 258.323 333.503 258.424 333.872 258.424C334.265 258.424 334.565 258.322 334.773 258.117C334.981 257.912 335.085 257.617 335.085 257.233C335.085 256.861 334.971 256.576 334.742 256.376C334.514 256.177 334.184 256.075 333.753 256.069H333.143V255.405ZM314.633 269.574C314.633 269.433 314.674 269.316 314.756 269.222C314.841 269.128 314.967 269.082 315.134 269.082C315.301 269.082 315.427 269.128 315.512 269.222C315.6 269.316 315.644 269.433 315.644 269.574C315.644 269.708 315.6 269.821 315.512 269.912C315.427 270.003 315.301 270.048 315.134 270.048C314.967 270.048 314.841 270.003 314.756 269.912C314.674 269.821 314.633 269.708 314.633 269.574ZM314.633 280.574C314.633 280.433 314.674 280.316 314.756 280.222C314.841 280.128 314.967 280.082 315.134 280.082C315.301 280.082 315.427 280.128 315.512 280.222C315.6 280.316 315.644 280.433 315.644 280.574C315.644 280.708 315.6 280.821 315.512 280.912C315.427 281.003 315.301 281.048 315.134 281.048C314.967 281.048 314.841 281.003 314.756 280.912C314.674 280.821 314.633 280.708 314.633 280.574ZM314.633 291.574C314.633 291.433 314.674 291.316 314.756 291.222C314.841 291.128 314.967 291.082 315.134 291.082C315.301 291.082 315.427 291.128 315.512 291.222C315.6 291.316 315.644 291.433 315.644 291.574C315.644 291.708 315.6 291.821 315.512 291.912C315.427 292.003 315.301 292.048 315.134 292.048C314.967 292.048 314.841 292.003 314.756 291.912C314.674 291.821 314.633 291.708 314.633 291.574Z" fill="#939393"/>
<path d="M286.354 145.354C286.549 145.158 286.549 144.842 286.354 144.646L283.172 141.464C282.976 141.269 282.66 141.269 282.464 141.464C282.269 141.66 282.269 141.976 282.464 142.172L285.293 145L282.464 147.828C282.269 148.024 282.269 148.34 282.464 148.536C282.66 148.731 282.976 148.731 283.172 148.536L286.354 145.354ZM209 145.5H286V144.5H209V145.5Z" fill="black"/>
<path d="M554.354 145.354C554.549 145.158 554.549 144.842 554.354 144.646L551.172 141.464C550.976 141.269 550.66 141.269 550.464 141.464C550.269 141.66 550.269 141.976 550.464 142.172L553.293 145L550.464 147.828C550.269 148.024 550.269 148.34 550.464 148.536C550.66 148.731 550.976 148.731 551.172 148.536L554.354 145.354ZM477 145.5H554V144.5H477V145.5Z" fill="black"/>
<path d="M648.646 263.354C648.842 263.549 649.158 263.549 649.354 263.354L652.536 260.172C652.731 259.976 652.731 259.66 652.536 259.464C652.34 259.269 652.024 259.269 651.828 259.464L649 262.293L646.172 259.464C645.976 259.269 645.66 259.269 645.464 259.464C645.269 259.66 645.269 259.976 645.464 260.172L648.646 263.354ZM648.5 229V263H649.5V229H648.5Z" fill="black"/>
</svg>
